<?xml version="1.0" encoding="UTF-8" standalone="no"?>
<!-- Created with Inkscape (http://www.inkscape.org/) -->

<svg
   xmlns:dc="http://purl.org/dc/elements/1.1/"
   xmlns:cc="http://creativecommons.org/ns#"
   xmlns:rdf="http://www.w3.org/1999/02/22-rdf-syntax-ns#"
   xmlns:svg="http://www.w3.org/2000/svg"
   xmlns="http://www.w3.org/2000/svg"
   xmlns:sodipodi="http://sodipodi.sourceforge.net/DTD/sodipodi-0.dtd"
   xmlns:inkscape="http://www.inkscape.org/namespaces/inkscape"
   width="4.9323063cm"
   height="4.9140425cm"
   viewBox="0 0 174.76675 174.11961"
   id="svg2"
   version="1.1"
   inkscape:version="0.91 r"
   sodipodi:docname="LOGO_traced.svg">
  <defs
     id="defs4">
    <clipPath
       id="clipPath3841">
      <path
         id="path3843"
         d="m 0,187.087 187.086,0 L 187.086,0 0,0 0,187.087 Z"
         inkscape:connector-curvature="0" />
    </clipPath>
  </defs>
  <sodipodi:namedview
     id="base"
     pagecolor="#ffffff"
     bordercolor="#666666"
     borderopacity="1.0"
     inkscape:pageopacity="0.0"
     inkscape:pageshadow="2"
     inkscape:zoom="0.35"
     inkscape:cx="-114.02329"
     inkscape:cy="406.46669"
     inkscape:document-units="px"
     inkscape:current-layer="layer1"
     showgrid="false"
     inkscape:window-width="1366"
     inkscape:window-height="768"
     inkscape:window-x="0"
     inkscape:window-y="0"
     inkscape:window-maximized="1"
     units="cm"
     fit-margin-top="0"
     fit-margin-left="0"
     fit-margin-right="0"
     fit-margin-bottom="0.3" />
  <metadata
     id="metadata7">
    <rdf:RDF>
      <cc:Work
         rdf:about="">
        <dc:format>image/svg+xml</dc:format>
        <dc:type
           rdf:resource="http://purl.org/dc/dcmitype/StillImage" />
        <dc:title></dc:title>
      </cc:Work>
    </rdf:RDF>
  </metadata>
  <g
     inkscape:label="Layer 1"
     inkscape:groupmode="layer"
     id="layer1"
     transform="translate(-243.92147,-193.70511)">
    <path
       style="fill:#000000"
       d="m 278.48889,357.06025 c -0.0732,-0.0732 -0.13308,-4.20642 -0.13308,-9.18495 l 0,-9.05187 7.30041,0.0524 7.3004,0.0524 -0.007,2.34552 c -0.004,1.29004 -0.0104,2.43536 -0.0143,2.54515 -0.005,0.12667 -1.57556,0.19962 -4.29894,0.19962 l -4.29182,0 0,3.89258 0,3.89258 4.28041,0 4.28041,0 0.0614,2.50594 c 0.0344,1.40722 -0.0218,2.58877 -0.12833,2.69486 -0.21466,0.21385 -14.13712,0.26802 -14.3493,0.0558 z m 100.69881,-0.13728 c -0.16506,-0.19887 -0.2136,-2.71905 -0.17594,-9.13472 l 0.052,-8.86009 3.04419,-0.0551 3.0442,-0.0551 0,6.49862 0,6.49863 2.60348,-0.0557 2.6035,-0.0557 0.0414,-6.38782 0.0415,-6.38782 2.9464,-0.0552 2.9464,-0.0552 -0.0519,9.13793 -0.0519,9.13793 -8.40769,0.052 c -6.94,0.043 -8.44749,0.004 -8.63564,-0.22261 z m -130.03774,-0.0572 c -0.076,-0.076 -0.1382,-3.03998 -0.1382,-6.58659 l 0,-6.44839 -2.54514,-0.0559 -2.54515,-0.0559 0,-2.39543 0,-2.39544 8.18439,0 8.1844,0 0,2.39544 0,2.39543 -2.59506,0.0998 -2.59505,0.0998 0,6.48763 0,6.48763 -2.906,0.055 c -1.59829,0.0303 -2.96818,-0.007 -3.04419,-0.0832 z m 12.63744,-8.95472 0,-9.08268 7.28611,0 7.2861,0 0,2.29165 0,2.29166 -4.24191,0.0539 -4.24191,0.0539 -0.0608,0.94819 -0.0608,0.9482 3.60408,0 3.60409,0 0,2.1912 0,2.19121 -3.54324,0.0545 -3.54325,0.0545 0,1.19772 0,1.19772 4.44153,0.0537 4.44154,0.0537 0,2.29181 0,2.2918 -7.48573,0 -7.48573,0 0,-9.08268 z m 32.93719,0 0,-9.08268 2.99429,0 2.99429,0 0,2.99429 0,2.99429 2.49525,0 2.49524,0 0,-2.99429 0,-2.99429 3.0941,0 3.0941,0 0,9.08268 0,9.08268 -3.0941,0 -3.0941,0 0,-3.49948 0,-3.49949 -2.44534,0.056 -2.44534,0.056 -0.0546,3.44343 -0.0546,3.44343 -2.98957,0 -2.98958,0 0,-9.08268 z m 18.76422,0 0,-9.08268 2.87153,0 2.87152,0 1.57001,2.60916 c 0.8635,1.43504 1.72621,2.84984 1.91713,3.144 0.19093,0.29417 0.40817,0.66959 0.48276,0.83428 0.0746,0.16469 0.37665,0.65874 0.67126,1.09791 0.2946,0.43916 0.63171,1.06796 0.74911,1.39733 0.16281,0.45676 0.2172,-0.54974 0.22922,-4.24191 l 0.0158,-4.84077 2.89448,0 2.89448,0 0,9.08268 0,9.08268 -2.87712,0 -2.87711,0 -2.6832,-4.44153 c -1.47576,-2.44284 -2.73408,-4.57627 -2.79627,-4.74096 -0.0622,-0.16468 -0.12017,1.834 -0.12884,4.44153 l -0.0158,4.74096 -2.89448,0 -2.89449,0 0,-9.08268 z m 19.16345,0 0,-9.08268 8.58363,0 8.58364,0 0,9.08788 0,9.08788 -3.0442,-0.0551 -3.04419,-0.0551 -0.0554,-2.29562 -0.0554,-2.29562 -2.48971,0.0614 -2.4897,0.0613 0,2.28422 0,2.28421 -2.99429,0 -2.99429,0 0,-9.08268 z m 10.97907,-2.39543 0,-1.49715 -2.49525,0 -2.49524,0 0,1.49715 0,1.49714 2.49524,0 2.49525,0 0,-1.49714 z m 8.27782,11.23395 c -0.0538,-0.14019 -0.0743,-4.20735 -0.0457,-9.03814 l 0.052,-8.78325 8.53638,-0.052 8.53639,-0.052 -0.0526,6.7393 -0.0526,6.7393 -0.69866,0 c -0.38427,0 -0.76467,0.0898 -0.84533,0.19962 -0.0807,0.10979 -0.14803,1.16528 -0.14971,2.34553 l -0.003,2.1459 -2.99429,0 -2.99429,0 0,-2.26235 c 0,-1.24429 -0.0371,-2.29978 -0.0823,-2.34553 -0.0453,-0.0457 -0.76102,-0.0537 -1.59057,-0.0177 l -1.50827,0.0655 -0.0563,2.23017 -0.0563,2.23017 -2.94859,0.0553 c -2.24878,0.0421 -2.9718,-0.005 -3.04637,-0.19962 z m 10.98544,-11.23395 0,-1.39734 -2.44533,-0.056 -2.44534,-0.056 0,1.50944 0,1.50943 2.44534,-0.056 2.44533,-0.056 0,-1.39734 z m 8.08459,2.39543 0,-9.08268 3.0941,0 3.0941,0 0,9.08268 0,9.08268 -3.0941,0 -3.0941,0 0,-9.08268 z m 27.34785,0.005 0,-9.0883 3.59742,0 c 4.10593,0 3.64675,-0.22547 4.26882,2.096 0.17653,0.65874 0.55342,2.00617 0.83755,2.99428 0.61024,2.12226 1.06009,3.79888 1.20508,4.49144 0.2113,1.00932 0.33096,1.10699 0.48914,0.39924 0.29249,-1.3086 1.33463,-5.04922 2.07802,-7.45874 0.16478,-0.53412 0.2996,-1.09132 0.2996,-1.23823 0,-0.14692 0.10425,-0.49592 0.23167,-0.77556 l 0.23166,-0.50843 3.56111,0 3.5611,0 0,9.08268 0,9.08268 -2.69486,0 -2.69486,0 -0.0147,-5.04039 -0.0147,-5.04039 -1.06114,4.192 c -0.58363,2.30561 -1.16435,4.57378 -1.29049,5.04039 l -0.22935,0.84839 -2.15449,0 -2.15448,0 -0.24332,-0.9482 c -0.13382,-0.5215 -0.3178,-1.26259 -0.40883,-1.64686 -0.14581,-0.61544 -1.75245,-6.84542 -1.86646,-7.23744 -0.0241,-0.083 -0.0439,2.07285 -0.0439,4.79086 l 0,4.94183 -2.74477,0.0556 -2.74476,0.0556 0,-9.08831 z M 325.64879,324.9049 c -2.44385,-3.2898 -4.25079,-5.09661 -6.03899,-6.03848 -0.72956,-0.38427 -1.30246,-0.77314 -1.27313,-0.86415 0.0746,-0.23158 0.60965,-0.518 4.15867,-2.22634 1.71477,-0.82542 3.24185,-1.49903 3.39353,-1.49693 0.15167,0.002 0.63508,0.5966 1.07425,1.32111 0.97533,1.60905 1.05819,1.74174 1.79018,2.86707 0.32137,0.49406 1.05335,1.64149 1.62661,2.54985 l 1.0423,1.65157 1.3312,-2.15062 c 3.0909,-4.9935 3.82933,-6.12236 4.05381,-6.19719 0.3716,-0.12386 7.44515,3.31465 7.56628,3.67805 0.0364,0.10915 -0.42677,0.44785 -1.02923,0.75267 -0.60246,0.30482 -1.27202,0.7024 -1.48792,0.88351 -0.21589,0.18112 -0.70334,0.57221 -1.08321,0.8691 -0.64345,0.50289 -3.32734,3.84543 -4.92697,6.13609 l -0.69867,1.00049 -3.72988,0.005 -3.72987,0.005 -2.03896,-2.74476 z m 5.46996,-6.28801 c -0.1018,-0.13724 -0.51129,-0.96815 -0.91,-1.84648 -0.3987,-0.87832 -1.03545,-2.27067 -1.41499,-3.0941 -1.25609,-2.72511 -1.35521,-3.0715 -1.54224,-5.38972 -0.10187,-1.26259 -0.2736,-3.14899 -0.38165,-4.192 -0.39302,-3.79434 -1.39287,-14.39407 -2.30663,-24.45337 -0.15957,-1.75665 -0.43699,-4.76591 -0.6165,-6.68725 -0.1795,-1.92133 -0.3378,-4.84657 -0.35176,-6.50051 -0.0249,-2.94688 -0.0146,-3.02342 0.50963,-3.81735 0.52522,-0.79532 5.17117,-4.85321 5.55653,-4.85321 0.11563,0 0.19646,0.81255 0.19646,1.97484 0,2.25046 -0.0258,2.21717 1.71308,2.21717 l 1.08158,0 0,-2.11064 c 0,-1.75985 0.0491,-2.09992 0.29557,-2.0461 0.40424,0.0883 3.78704,2.83652 4.90893,3.9881 1.34797,1.38366 1.5222,2.30549 1.21435,6.42488 -0.36539,4.88925 -1.34506,15.91063 -2.32725,26.1819 -0.15749,1.64686 -0.42695,4.47646 -0.59882,6.28801 -0.17186,1.81154 -0.44416,4.56633 -0.6051,6.12174 -0.16094,1.55541 -0.29263,3.05472 -0.29263,3.33182 0,0.27709 -0.34906,1.2502 -0.7757,2.16246 -0.42664,0.91227 -0.97757,2.10781 -1.2243,2.65676 -0.96394,2.14478 -1.80468,3.89258 -1.87245,3.89258 -0.0391,0 -0.15433,-0.11229 -0.25611,-0.24953 z m -13.43793,-3.02714 c 0,-0.27763 -0.58882,-1.9417 -2.0544,-5.80601 -0.16656,-0.43917 -0.85624,-2.32557 -1.53262,-4.19201 -1.34042,-3.69879 -1.69812,-4.65039 -2.12229,-5.64602 -0.1536,-0.36054 -0.27927,-0.75119 -0.27927,-0.86812 0,-0.11691 -0.12409,-0.49564 -0.27574,-0.84161 -0.15166,-0.34596 -0.69657,-1.7968 -1.21091,-3.22407 -0.51434,-1.42728 -1.0741,-2.95437 -1.24391,-3.39353 -0.54814,-1.41762 -0.81297,-2.13712 -2.05725,-5.58935 -1.29511,-3.59322 -1.66868,-4.58851 -2.11921,-5.64601 -0.15361,-0.36054 -0.27928,-0.7512 -0.27928,-0.86812 0,-0.11692 -0.12636,-0.49564 -0.28079,-0.84161 -0.70738,-1.58468 -2.73363,-7.36269 -2.62134,-7.47497 0.0691,-0.0691 0.30638,-0.0127 0.52731,0.12524 2.83781,1.77224 6.66585,2.81406 9.30248,2.5317 l 1.30048,-0.13927 3.69827,-3.77454 c 2.03405,-2.07599 3.76129,-3.77453 3.83831,-3.77453 0.13529,0 0.30887,1.44546 0.91092,7.58553 0.1561,1.59197 0.38143,3.88259 0.50075,5.09029 0.11932,1.2077 0.29939,3.18393 0.40017,4.39162 0.10078,1.2077 0.27298,3.00428 0.38266,3.99239 0.10969,0.98812 0.33498,3.21146 0.50065,4.94076 0.37843,3.95031 0.82854,8.57925 1.11122,11.42803 0.11984,1.20769 0.29491,3.09583 0.38905,4.19586 0.0941,1.10002 0.22673,2.53728 0.29464,3.19391 0.0679,0.65662 0.0522,1.28369 -0.0348,1.39348 -0.087,0.10979 -0.65231,0.45498 -1.25616,0.7671 -0.60385,0.31211 -2.01794,1.05319 -3.14243,1.64685 -2.11865,1.11853 -2.64653,1.2775 -2.64653,0.79701 z m 24.95241,-0.63689 c -0.93322,-0.49993 -2.40336,-1.27458 -3.26698,-1.72146 l -1.57022,-0.8125 0.12725,-1.61701 c 0.07,-0.88935 0.25718,-2.91953 0.41598,-4.51149 0.15879,-1.59197 0.42565,-4.30936 0.59301,-6.03866 0.69873,-7.21957 0.91856,-9.49171 1.20709,-12.47621 0.16717,-1.7291 0.44064,-4.53618 0.60773,-6.23793 0.16708,-1.70176 0.43853,-4.48645 0.60321,-6.18819 0.63263,-6.53718 0.94678,-9.18249 1.09048,-9.18249 0.082,0 1.79821,1.69731 3.81382,3.7718 l 3.66474,3.77182 1.32949,0.1421 c 2.36962,0.25326 5.34333,-0.44917 8.20958,-1.93925 0.85487,-0.44441 1.59577,-0.76657 1.64644,-0.71589 0.0888,0.0887 -1.64467,4.98869 -2.22094,6.27807 -0.15462,0.34597 -0.28113,0.72469 -0.28113,0.84161 0,0.11692 -0.12568,0.50758 -0.27928,0.86813 -0.4216,0.98959 -0.80094,1.99844 -1.82277,4.84753 -0.92583,2.58145 -1.23081,3.41201 -1.77756,4.84077 -0.15755,0.41172 -0.83986,2.27566 -1.51624,4.1421 -0.67639,1.86644 -1.36607,3.75285 -1.53262,4.19201 -0.16656,0.43916 -0.42242,1.11288 -0.56858,1.49714 -0.14617,0.38427 -0.81814,2.22576 -1.49329,4.0922 -0.67514,1.86644 -1.35388,3.6766 -1.50832,4.02256 -0.15443,0.34596 -0.28079,0.72469 -0.28079,0.8416 0,0.11693 -0.12567,0.50758 -0.27927,0.86812 -0.40177,0.94304 -0.80356,2.00596 -1.5306,4.04907 -0.92855,2.6094 -1.23522,3.29436 -1.47236,3.28857 -0.11611,-0.003 -0.97465,-0.41419 -1.90787,-0.91412 z m -28.54556,-1.47669 c -0.27448,-0.20767 -3.59814,-2.62204 -7.38592,-5.36526 -7.41792,-5.37227 -12.58154,-9.12036 -14.72538,-10.68861 -2.67139,-1.95416 -4.9279,-4.66734 -6.51533,-7.83385 -0.77583,-1.54759 -0.81266,-1.66303 -0.5305,-1.66303 0.15386,0 4.55782,2.51551 5.60205,3.19984 0.16468,0.10793 0.43417,0.25875 0.59885,0.33516 0.16469,0.0764 1.85486,1.06396 3.75595,2.19455 1.90108,1.13058 3.48754,2.0556 3.52546,2.0556 0.0379,0 1.65484,0.9432 3.59315,2.09601 1.93831,1.1528 3.55843,2.096 3.60026,2.096 0.26465,0 5.08788,3.05999 5.08788,3.22789 0,0.17066 1.52971,3.97962 2.191,5.45555 0.69139,1.54312 2.00101,4.84559 2.00101,5.04596 0,0.33177 -0.20759,0.29127 -0.79848,-0.15581 z m 33.58628,0.17049 c 0.11973,-0.29775 1.68675,-4.02734 1.95853,-4.6614 0.0941,-0.21958 0.62934,-1.5221 1.18937,-2.89448 0.56005,-1.37238 1.1132,-2.68879 1.22923,-2.92536 0.11604,-0.23656 1.4786,-1.17976 3.02793,-2.096 1.54932,-0.91624 2.99845,-1.77465 3.22027,-1.90758 0.22182,-0.13293 0.53805,-0.30683 0.70274,-0.38644 0.34411,-0.16634 6.13626,-3.56569 6.58743,-3.86609 0.16469,-0.10966 0.43418,-0.26041 0.59886,-0.33502 0.314,-0.14224 6.06941,-3.51207 6.58744,-3.85699 0.16469,-0.10966 0.43417,-0.26031 0.59886,-0.3348 0.16468,-0.0745 1.17738,-0.6578 2.25043,-1.29626 1.07306,-0.63845 1.9938,-1.16082 2.0461,-1.16082 0.24106,0 0.0455,0.72135 -0.4862,1.79287 -1.57894,3.18237 -4.25395,6.14173 -7.90253,8.74258 -1.31749,0.93916 -2.9467,2.11934 -3.62048,2.62264 -0.67378,0.50329 -1.42609,1.04982 -1.6718,1.2145 -0.24572,0.16469 -1.73582,1.24263 -3.31135,2.39543 -7.69383,5.62953 -12.53623,9.08934 -12.81039,9.15284 -0.18955,0.0439 -0.26232,-0.0308 -0.19444,-0.19962 z M 308.1989,298.92544 c -0.32937,-0.19248 -1.18619,-0.67128 -1.90404,-1.06401 -0.71784,-0.39273 -1.77728,-0.99241 -2.35431,-1.33264 -0.57702,-0.34023 -1.08751,-0.6186 -1.13441,-0.6186 -0.0469,0 -0.769,-0.40423 -1.60466,-0.89828 -0.83567,-0.49406 -1.55029,-0.89829 -1.58806,-0.89829 -0.22346,0 -7.40492,-4.40354 -8.48198,-5.201 -3.72609,-2.75883 -5.59328,-5.68963 -7.62361,-11.96627 -0.44393,-1.37237 -1.14293,-3.52826 -1.55333,-4.79085 -0.41041,-1.2626 -1.17078,-3.64306 -1.68972,-5.28992 -0.51894,-1.64686 -1.19629,-3.75783 -1.50521,-4.69105 -0.30892,-0.93322 -0.98151,-3.0442 -1.49464,-4.69105 -0.51312,-1.64686 -1.18464,-3.75784 -1.49227,-4.69106 -0.92456,-2.8048 -2.37918,-7.44683 -2.52589,-8.06071 -0.0984,-0.41191 -0.068,-0.55182 0.10751,-0.49333 0.13471,0.0449 2.02116,1.55011 4.19212,3.34491 l 3.9472,3.26327 0.85108,2.61979 c 0.4681,1.44088 1.23034,3.78756 1.69387,5.21484 0.46353,1.42728 1.27168,3.94248 1.79587,5.58934 0.52419,1.64686 1.33031,4.16207 1.79137,5.58934 0.46106,1.42728 1.13408,3.53826 1.49559,4.69106 1.39101,4.43571 2.83061,7.03814 5.00896,9.05491 1.21394,1.12389 1.86698,1.37005 2.3509,0.88613 0.4766,-0.4766 0.21366,-0.99665 -1.21945,-2.41187 -2.46537,-2.43461 -2.96332,-3.47332 -5.52332,-11.52156 -0.57621,-1.81154 -1.38265,-4.32675 -1.79208,-5.58934 -0.40942,-1.26259 -1.17392,-3.64305 -1.69887,-5.28991 -0.52495,-1.64686 -1.1679,-3.65577 -1.42879,-4.46424 -0.26089,-0.80848 -0.47434,-1.50465 -0.47434,-1.54705 0,-0.39358 0.97526,0.31291 4.10641,2.97472 0.36009,0.30611 1.62707,1.81374 2.81549,3.35028 4.20763,5.44012 5.36609,6.92847 6.37543,8.19092 1.20122,1.50245 1.4556,1.9761 2.133,3.97158 0.4583,1.35003 1.90644,5.43209 2.65563,7.48572 0.16022,0.43916 0.51358,1.47219 0.78524,2.29562 0.27167,0.82343 0.57689,1.6768 0.67826,1.89638 0.10137,0.21958 0.38373,0.98313 0.62747,1.69677 0.68294,1.99959 1.49027,4.29491 2.28189,6.48763 0.39638,1.0979 0.9341,2.62499 1.19494,3.39352 0.26084,0.76854 0.65974,1.89013 0.88645,2.49243 0.22671,0.6023 0.41221,1.16373 0.41221,1.24762 0,0.24452 -0.45233,0.15151 -1.09791,-0.22575 z m 45.21377,0.24358 c 0,-0.15881 0.62086,-1.96794 1.90616,-5.55445 0.5115,-1.42728 1.04863,-2.95437 1.19363,-3.39353 0.14499,-0.43916 0.59044,-1.69676 0.98988,-2.79467 0.39945,-1.09791 0.93987,-2.62499 1.20094,-3.39353 0.26108,-0.76853 0.80005,-2.29562 1.19772,-3.39353 0.39767,-1.0979 0.9392,-2.62499 1.20341,-3.39353 0.26421,-0.76853 0.61267,-1.75664 0.77435,-2.1958 0.16169,-0.43917 0.6581,-1.82399 1.10315,-3.07739 0.44503,-1.25339 0.93179,-2.42117 1.08167,-2.59505 0.51983,-0.60306 1.73721,-2.14555 4.81959,-6.10669 1.09791,-1.41091 2.65121,-3.39985 3.45177,-4.41988 1.78855,-2.27886 6.03015,-5.93007 6.03015,-5.19082 0,0.0381 -0.39534,1.27323 -0.87855,2.74476 -0.4832,1.47154 -1.43582,4.42718 -2.11692,6.5681 -0.68111,2.14091 -1.48891,4.65612 -1.79511,5.58934 -0.3062,0.93322 -0.97998,3.04419 -1.49729,4.69105 -1.01769,3.23984 -1.04226,3.3085 -1.71401,4.79086 -0.61016,1.34645 -2.41853,3.73523 -3.49611,4.61822 -0.89424,0.73276 -1.112,1.35635 -0.63886,1.82949 0.43572,0.43572 1.00208,0.25053 2.09856,-0.68623 1.88269,-1.60843 3.8096,-4.7394 4.71291,-7.65786 0.18689,-0.60384 0.73221,-2.31059 1.21181,-3.79276 0.47959,-1.48218 1.30109,-4.0423 1.82557,-5.68916 0.52447,-1.64685 1.28857,-4.02732 1.69801,-5.28991 0.40942,-1.26259 1.21346,-3.77779 1.78675,-5.58934 1.34416,-4.24744 1.56406,-4.82841 1.96475,-5.19074 0.18251,-0.16503 1.0944,-0.92858 2.02643,-1.69677 0.93202,-0.76818 1.87522,-1.54567 2.09599,-1.72776 2.06317,-1.7016 3.207,-2.68778 3.26263,-2.81294 0.0936,-0.21052 0.63212,-0.18735 0.63212,0.0272 0,0.0973 -0.2156,0.83838 -0.47913,1.64686 -0.47294,1.45096 -1.06347,3.3032 -3.10981,9.75415 -0.57465,1.81155 -1.25012,3.92252 -1.50105,4.69106 -0.25093,0.76853 -0.92788,2.8795 -1.50434,4.69105 -0.57646,1.81155 -1.29511,4.05726 -1.59703,4.99048 -0.3019,0.93322 -0.97252,3.0442 -1.49026,4.69106 -0.51774,1.64685 -1.06638,3.27735 -1.2192,3.62331 -0.15282,0.34597 -0.27786,0.71275 -0.27786,0.81507 0,0.35223 -1.29887,3.17001 -2.06393,4.47748 -1.01081,1.72746 -2.78577,3.67 -4.5732,5.00494 -1.56527,1.16902 -5.89113,3.78903 -11.12899,6.74039 -3.1351,1.76653 -3.79507,2.13515 -5.89585,3.29312 -0.91503,0.50437 -1.29045,0.61037 -1.29045,0.36435 z m -44.01606,-28.34831 c -1.16292,-0.10189 -3.75593,-0.81406 -5.16517,-1.41862 -4.24748,-1.82215 -7.76395,-5.09846 -9.72946,-9.06495 -0.9544,-1.92603 -1.33488,-2.89632 -1.48938,-3.79806 -0.139,-0.81138 -0.18311,-0.85622 -3.78281,-3.84647 -1.18951,-0.98811 -2.57893,-2.15589 -3.08759,-2.59505 -0.50866,-0.43916 -1.50007,-1.29254 -2.20312,-1.89638 -5.17124,-4.44157 -9.14909,-8.27697 -10.66219,-10.2804 -2.36062,-3.12557 -3.80594,-6.4926 -4.92271,-11.468 -0.35904,-1.59958 -0.51179,-3.80288 -0.26365,-3.80288 0.10005,0 4.01031,2.91784 4.2767,3.19127 0.0549,0.0564 0.99809,0.77995 2.096,1.608 1.09791,0.82806 4.01734,3.03422 6.48763,4.90258 2.47029,1.86835 7.05155,5.32108 10.18058,7.67272 3.12904,2.35165 5.8239,4.38623 5.98859,4.52132 0.16468,0.13508 1.28754,1.00117 2.49524,1.92466 1.58315,1.21058 2.18112,1.78373 2.14315,2.05422 -0.22034,1.56987 -0.2573,4.15601 -0.0734,5.13477 0.54153,2.88189 2.79445,5.78886 5.50886,7.10817 2.71663,1.32038 6.50964,1.31335 9.18277,-0.017 l 1.28525,-0.63965 0.75802,0.53009 c 0.41691,0.29154 1.00331,0.73339 1.30312,0.98188 l 0.54509,0.45181 -1.74281,1.8295 c -0.95854,1.00623 -2.85764,3.00492 -4.22021,4.44154 -2.74124,2.89022 -2.36041,2.6982 -4.90852,2.47496 z m 38.42672,-3.05363 c -4.18458,-4.35553 -5.18626,-5.45592 -5.18833,-5.69966 -0.002,-0.21269 1.77575,-1.61809 2.302,-1.82002 0.1619,-0.0622 0.51205,0.0297 0.77811,0.204 1.60215,1.04976 4.89497,1.57746 7.17276,1.14948 3.8128,-0.7164 7.03983,-3.75198 8.03004,-7.55363 0.34095,-1.30901 0.36428,-3.82141 0.0454,-4.88586 -0.22298,-0.74422 -0.20573,-0.81051 0.34933,-1.34285 0.32114,-0.308 5.34481,-4.13697 11.16371,-8.50883 9.73412,-7.31344 12.12513,-9.12033 13.77374,-10.40882 0.32937,-0.25743 0.68869,-0.53607 0.79848,-0.6192 4.94233,-3.74218 7.49321,-5.63179 7.60262,-5.63179 0.20768,0 -0.0793,2.91669 -0.43214,4.39163 -0.9017,3.76958 -2.33121,7.19016 -4.18184,10.00647 -0.89997,1.36959 -4.39297,5.04721 -7.18065,7.56018 -1.37238,1.23714 -7.72033,6.6921 -9.17558,7.88481 -3.66188,3.00125 -3.6139,2.94563 -4.27846,4.96 -0.99022,3.00155 -2.24255,5.08526 -4.5022,7.49107 -3.15707,3.36128 -7.69292,5.5264 -12.3859,5.91222 l -1.59695,0.13129 -3.0941,-3.22049 z m -36.82624,-7.23941 c -0.0461,-0.13724 -0.11062,-0.4741 -0.14345,-0.74857 -0.0766,-0.64035 -0.8633,-0.81241 -1.04838,-0.22929 -0.23344,0.73552 -0.57591,0.84794 -1.48969,0.489 -0.86781,-0.34088 -0.93428,-0.52666 -0.53011,-1.48158 0.22813,-0.539 -0.48729,-0.64799 -1.13076,-0.17225 l -0.56789,0.41986 -0.70687,-0.70687 -0.70686,-0.70687 0.4281,-0.60122 c 0.54978,-0.7721 0.36803,-1.04107 -0.65183,-0.96464 -0.78432,0.0588 -0.82955,0.0299 -1.11575,-0.71242 -0.29632,-0.76857 -0.29422,-0.7772 0.31611,-1.29753 0.74836,-0.63802 0.6526,-1.02287 -0.25451,-1.02287 -0.74654,0 -0.97788,-0.41392 -0.85114,-1.52293 0.0555,-0.48535 0.17209,-0.58836 0.7619,-0.67288 0.92304,-0.1323 1.0162,-0.64863 0.20363,-1.12863 -0.64572,-0.38144 -0.66495,-0.54653 -0.20471,-1.75705 0.21261,-0.55922 0.42322,-0.61768 1.03865,-0.28832 0.96924,0.51872 0.008,-0.29978 -2.17808,-1.85508 -1.28199,-0.91199 -3.23361,-2.30412 -4.33693,-3.09361 -1.10332,-0.78948 -2.81448,-2.00913 -3.80259,-2.71031 -0.98812,-0.70119 -5.03041,-3.59359 -8.98288,-6.42756 -3.95246,-2.83397 -7.77018,-5.55859 -8.48382,-6.05471 -0.71364,-0.49613 -1.33645,-0.9342 -1.38402,-0.9735 -0.0476,-0.0393 -0.003,-0.15175 0.0998,-0.2499 0.27842,-0.26667 3.46518,0.39605 4.77756,0.99354 0.52639,0.23966 5.73919,2.34386 6.88687,2.77996 0.49406,0.18773 1.34743,0.52819 1.89638,0.75656 0.54896,0.22838 2.07604,0.83326 3.39353,1.34419 1.31749,0.51092 2.70983,1.05164 3.0941,1.2016 1.20886,0.47174 4.23526,1.63521 5.68915,2.18713 0.76854,0.29176 1.7342,0.65922 2.14591,0.81659 0.41172,0.15736 1.10789,0.42087 1.54705,0.58555 1.51984,0.56994 2.49696,0.94682 2.89448,1.1164 0.21958,0.0937 0.75855,0.29485 1.19772,0.44704 0.43916,0.15219 2.91766,1.08339 5.50778,2.06933 l 4.70931,1.79262 0.78022,-0.69867 c 1.24305,-1.11311 4.64191,-4.21111 6.17131,-5.625 2.55272,-2.35993 3.52068,-3.19391 3.70704,-3.19391 0.11022,0 0.18101,4.14808 0.1763,10.3303 l -0.008,10.3303 -1.8386,1.43414 c -4.84661,3.78042 -6.03402,4.65385 -6.32013,4.64893 -0.17014,-0.003 -0.84152,-0.40715 -1.49194,-0.89829 -0.65044,-0.49113 -1.28777,-0.89297 -1.41632,-0.89297 -0.12853,0 -0.39629,0.17966 -0.595,0.39924 -0.43785,0.48381 -0.65729,0.49857 -1.12466,0.0756 -0.20119,-0.18207 -0.50278,-0.26794 -0.68946,-0.1963 -0.26265,0.10079 -0.30607,0.28855 -0.20824,0.90032 0.11668,0.72973 0.0857,0.79097 -0.55415,1.09458 -0.9137,0.43358 -1.02343,0.41408 -1.50927,-0.26823 -0.52961,-0.74376 -1.00451,-0.60816 -1.00451,0.28682 0,0.57094 -0.0779,0.66793 -0.62381,0.77712 -0.94164,0.18832 -1.37597,0.15143 -1.46868,-0.12476 z m 2.70446,-4.74799 c 0.26652,-0.14263 0.38612,-0.4187 0.38612,-0.89126 0,-0.99568 -1.00337,-1.46336 -1.68251,-0.78421 -0.45022,0.45022 -0.38746,1.20894 0.12997,1.57137 0.52334,0.36656 0.6542,0.37824 1.16642,0.1041 z m -4.2679,-1.82434 c 0.81955,-0.76993 0.5526,-2.10931 -0.50796,-2.5486 -0.48212,-0.19971 -0.69148,-0.18818 -1.18115,0.0651 -0.95252,0.49256 -1.13293,1.49729 -0.42944,2.39162 0.52327,0.66524 1.4648,0.7061 2.11855,0.0919 z m 40.6354,6.61601 c -0.32227,-0.12954 -0.44914,-0.34548 -0.44914,-0.76447 0,-0.32116 -0.1263,-0.6324 -0.28068,-0.69163 -0.30046,-0.1153 -0.91704,0.44227 -0.91704,0.82928 0,0.31712 -0.46793,0.29387 -1.32938,-0.0661 -0.69407,-0.29 -0.71346,-0.32631 -0.58927,-1.10295 0.14888,-0.93109 -0.24525,-1.26401 -0.84927,-0.71739 -0.47765,0.43228 -0.80967,0.40784 -1.3495,-0.0993 l -0.45019,-0.42293 -1.31891,0.92198 c -1.38384,0.96738 -1.76011,1.08313 -2.1858,0.67246 -0.14226,-0.13724 -1.31427,-1.05798 -2.60448,-2.0461 -1.29021,-0.98812 -2.50737,-1.93132 -2.7048,-2.096 -0.19745,-0.16469 -0.81559,-0.65698 -1.37366,-1.09398 l -1.01467,-0.79454 0,-10.23443 c 0,-9.43769 0.026,-10.23442 0.33422,-10.23442 0.18383,0 0.96983,0.60779 1.74667,1.35065 0.77685,0.74286 2.26005,2.11275 3.29601,3.0442 1.03596,0.93145 2.72753,2.46728 3.75904,3.41297 l 1.87548,1.71944 3.12783,-1.16849 c 1.7203,-0.64266 3.28381,-1.2592 3.47445,-1.3701 0.19064,-0.11089 0.46013,-0.20216 0.59886,-0.20284 0.13873,-6e-4 0.47925,-0.11971 0.75671,-0.26452 0.27746,-0.14481 0.68169,-0.31634 0.89829,-0.38117 0.2166,-0.0648 0.88786,-0.31185 1.49171,-0.54892 0.60385,-0.23706 1.32248,-0.50739 1.59696,-0.60074 0.27447,-0.0933 0.94819,-0.34452 1.49714,-0.55818 0.54895,-0.21365 2.48027,-0.94618 4.29182,-1.62784 1.81154,-0.68165 3.69795,-1.4055 4.192,-1.60854 0.49406,-0.20304 1.75166,-0.69323 2.79467,-1.08932 1.04302,-0.39608 2.07605,-0.79973 2.29563,-0.897 0.21958,-0.0973 2.1509,-0.86768 4.29181,-1.71205 2.14092,-0.84435 4.16207,-1.64843 4.49144,-1.78682 4.58885,-1.92815 7.51494,-2.76473 7.96947,-2.27853 0.15116,0.16168 0.15192,0.25335 0.003,0.30898 -0.11679,0.0435 -1.17059,0.77336 -2.34179,1.62191 -1.1712,0.84854 -3.07603,2.21653 -4.23295,3.03996 -1.15692,0.82343 -3.04332,2.17086 -4.19201,2.99429 -1.14868,0.82343 -3.03653,2.17086 -4.19522,2.99429 -1.1587,0.82343 -2.28222,1.63188 -2.49672,1.79657 -0.21449,0.16469 -1.33916,0.97314 -2.49926,1.79657 -1.16009,0.82343 -2.98015,2.12885 -4.04456,2.90094 -1.06442,0.77209 -2.62752,1.88097 -3.47355,2.46419 -1.56818,1.08102 -2.51575,1.93244 -1.61888,1.45461 0.64706,-0.34474 0.75576,-0.29898 1.12396,0.47314 0.45821,0.96088 0.42779,1.13751 -0.26372,1.53099 -0.35827,0.20387 -0.5976,0.50366 -0.5976,0.74857 0,0.33228 0.12789,0.40853 0.68522,0.40853 0.79714,0 1.02663,0.4229 0.82184,1.5145 -0.11616,0.6192 -0.19069,0.68131 -0.81743,0.68131 -0.86227,0 -0.93159,0.49073 -0.15661,1.10868 0.52735,0.42049 0.52965,0.43331 0.21691,1.20522 -0.30059,0.74189 -0.35553,0.77765 -1.11877,0.72815 -1.0086,-0.0654 -1.1972,0.22484 -0.63777,0.98151 l 0.43774,0.59208 -0.72518,0.68392 -0.72518,0.68394 -0.54833,-0.4054 c -0.77924,-0.57611 -1.22081,-0.35533 -1.02508,0.51253 0.17429,0.77276 0.13739,0.83173 -0.75397,1.20494 -0.79676,0.3336 -1.16808,0.21532 -1.32833,-0.42314 -0.19866,-0.79156 -0.81016,-0.61524 -1.08853,0.31387 -0.20435,0.68206 -0.3181,0.79663 -0.78017,0.78582 -0.29751,-0.007 -0.74305,-0.0939 -0.99008,-0.19318 z m 0.1839,-4.91539 c 1.01288,-0.91665 -0.19047,-2.33213 -1.34148,-1.57797 -0.59302,0.38856 -0.62779,0.97135 -0.09,1.5091 0.48575,0.48574 0.94639,0.50791 1.43152,0.0689 z m 5.06518,-1.75656 c 0.59704,-0.59703 0.63857,-1.47107 0.0975,-2.05184 -0.56954,-0.61134 -1.10141,-0.71565 -1.80192,-0.35339 -1.04755,0.54171 -1.18278,1.68531 -0.30329,2.5648 0.48912,0.48912 1.43414,0.41401 2.00772,-0.15957 z m -37.23807,-14.62834 c -0.16469,-0.0634 -1.10789,-0.49395 -2.09601,-0.95669 -1.86962,-0.87556 -3.67897,-1.71611 -5.88877,-2.73568 -0.71364,-0.32926 -1.95075,-0.90265 -2.74914,-1.27419 -1.1222,-0.52224 -1.7134,-0.67554 -2.60517,-0.67554 -2.245,0 -6.50032,-1.20298 -9.01634,-2.54892 -3.48075,-1.86203 -6.76878,-4.73486 -8.62037,-7.53185 -0.88939,-1.3435 -2.36705,-4.05273 -2.62938,-4.82084 -0.60785,-1.77986 -0.78264,-2.39123 -1.13016,-3.95307 -0.54958,-2.46993 -0.55525,-6.92619 -0.0118,-9.30176 0.5878,-2.56966 0.91878,-3.49203 2.10945,-5.87865 1.04835,-2.10134 3.63216,-5.64943 4.25925,-5.84877 0.14907,-0.0474 2.02689,1.66898 4.2542,3.88844 l 3.98732,3.9733 -0.78163,0.98971 c -1.9066,2.41417 -2.63648,4.53808 -2.63648,7.67197 0,3.41015 1.06703,6.03056 3.4095,8.37302 1.95233,1.95234 5.08051,3.4095 7.3194,3.4095 0.77254,0 0.84902,-0.045 0.84902,-0.49905 0,-0.39273 -0.10137,-0.49905 -0.47577,-0.49905 -0.48572,0 -0.71343,-0.41923 -0.71923,-1.32414 -0.001,-0.26186 -0.16239,-0.46762 -0.41734,-0.53429 -0.31791,-0.0831 -0.50876,0.0511 -0.8182,0.57557 -0.47123,0.79869 -0.6063,0.82011 -1.73436,0.27509 -0.66725,-0.32238 -0.82303,-0.49135 -0.73616,-0.79847 0.0606,-0.21426 0.15713,-0.55654 0.21451,-0.76063 0.0576,-0.20466 -0.035,-0.4867 -0.20643,-0.62894 -0.25419,-0.21097 -0.40031,-0.20996 -0.80298,0.005 -0.27074,0.1449 -0.49224,0.33809 -0.49224,0.42933 0,0.38907 -0.63095,0.11305 -1.28792,-0.5634 -0.38956,-0.40111 -0.70827,-0.76991 -0.70827,-0.81957 0,-0.0496 0.22722,-0.36032 0.50495,-0.69038 0.68938,-0.81928 0.37131,-1.24123 -0.80291,-1.06514 -0.78811,0.11819 -0.83301,0.0954 -1.15925,-0.58873 -0.47674,-0.99976 -0.42463,-1.34685 0.26075,-1.73686 0.41257,-0.23476 0.5976,-0.49388 0.5976,-0.8369 0,-0.44183 -0.094,-0.50365 -0.84838,-0.55824 l -0.84839,-0.0614 0,-1.0979 0,-1.09791 0.84839,-0.18805 c 0.68209,-0.1512 0.84838,-0.27361 0.84838,-0.62455 0,-0.29678 -0.19168,-0.51588 -0.59886,-0.68454 -0.68971,-0.28569 -0.74926,-0.66915 -0.26246,-1.68999 0.35561,-0.74573 0.90254,-0.91109 1.66453,-0.50329 0.30181,0.16152 0.42315,0.11731 0.60363,-0.21993 0.19046,-0.35587 0.1448,-0.50673 -0.29104,-0.96165 -0.28432,-0.29676 -0.51694,-0.62932 -0.51694,-0.73901 0,-0.31229 1.28139,-1.47548 1.62542,-1.47548 0.16989,0 0.47148,0.17966 0.6702,0.39924 0.42546,0.47013 1.06279,0.52338 1.22438,0.10231 0.0627,-0.16331 0.0134,-0.58528 -0.10943,-0.93771 -0.26447,-0.75864 -0.11459,-0.94706 1.07287,-1.34877 0.71234,-0.24098 0.81101,-0.2327 0.9981,0.0838 0.50421,0.8529 0.85548,1.16452 1.17461,1.04206 0.18314,-0.0703 0.33052,-0.34487 0.33052,-0.61582 0,-0.97223 0.17402,-1.1205 1.31508,-1.1205 1.13956,0 1.12844,-0.0109 1.32414,1.29753 0.10504,0.70221 0.81305,0.59206 1.23541,-0.19221 0.20913,-0.38835 0.44848,-0.70608 0.53188,-0.70608 0.0834,0 0.57283,0.18054 1.08762,0.40121 0.99199,0.42521 0.96325,0.33937 0.57757,1.72546 -0.17904,0.64346 0.56754,0.81325 1.24226,0.28251 0.66733,-0.52491 0.70578,-0.52145 1.44877,0.13051 0.72907,0.63975 0.78252,1.15349 0.18608,1.78838 -0.60648,0.64557 -0.35859,0.75628 0.45213,0.20193 1.42292,-0.97298 3.31262,-2.28142 4.27299,-2.95865 0.90923,-0.64118 2.22924,-1.55342 5.58934,-3.86273 1.80952,-1.24363 3.29114,-2.28205 4.31856,-3.02673 0.50876,-0.36876 1.02528,-0.67047 1.14781,-0.67047 0.16009,0 0.22278,2.15397 0.22278,7.65415 l 0,7.65415 -1.64686,1.37862 c -0.90577,0.75824 -3.17395,2.68388 -5.04039,4.27919 -1.86644,1.59532 -3.82249,3.24739 -4.34679,3.67126 -0.52429,0.42388 -0.91824,0.80571 -0.87544,0.84851 0.0428,0.0428 1.70139,-0.75589 3.68574,-1.77487 2.86113,-1.46922 3.95133,-2.14993 5.26707,-3.28875 2.58948,-2.2413 2.60875,-2.2569 2.78759,-2.2569 0.093,0 0.16437,1.1004 0.15861,2.44534 l -0.0104,2.44533 -1.21964,0.9981 c -1.13964,0.93264 -7.01132,5.91839 -7.43511,6.31329 -0.12024,0.11204 -0.0391,0.3316 0.21752,0.58816 l 0.40939,0.40938 1.77866,-0.93591 c 0.97827,-0.51475 1.82358,-0.99209 1.87848,-1.06075 0.23594,-0.29511 4.15563,-3.6174 4.26786,-3.6174 0.0681,0 0.11821,2.22326 0.11143,4.94057 l -0.0123,4.94058 -1.41445,1.19772 c -1.32985,1.12608 -3.70876,3.18745 -6.44585,5.58546 -2.25099,1.97213 -3.36964,2.89836 -3.48141,2.8826 -0.0615,-0.009 -0.24648,-0.0677 -0.41117,-0.13111 z m -15.03784,-11.15463 c 0.54909,-0.83801 0.0759,-1.43502 -1.57869,-1.9919 -6.38476,-2.1489 -10.71152,-7.35876 -11.51306,-13.86291 -0.28756,-2.33339 -0.0232,-4.98197 0.71172,-7.13218 0.58905,-1.7233 0.55487,-2.22493 -0.17951,-2.63443 -0.84278,-0.46993 -1.51052,-0.002 -1.98523,1.39067 -1.45532,4.27007 -1.43847,8.90947 0.047,12.92959 1.92947,5.22188 6.0064,9.29976 11.3703,11.37296 0.60385,0.2334 1.47761,0.43018 1.94169,0.4373 0.69727,0.0107 0.90317,-0.0777 1.18584,-0.5091 z m 3.06068,-13.66271 c 0,-0.98163 -0.0508,-1.78479 -0.11294,-1.78479 -0.2778,0 -1.01537,0.48348 -1.32987,0.87175 -0.41036,0.5066 -0.43952,1.24364 -0.0752,1.90095 0.28078,0.50659 1.11119,1.04831 1.36578,0.89096 0.0837,-0.0518 0.15223,-0.89723 0.15223,-1.87887 z m -2.64496,-3.0867 c 0.5954,-0.68526 0.57067,-1.51732 -0.0677,-2.27592 -0.43085,-0.51204 -0.66083,-0.61417 -1.38285,-0.61417 -0.70013,0 -0.94615,0.10182 -1.28412,0.53148 -0.22993,0.29231 -0.46833,0.73178 -0.52978,0.97659 -0.14395,0.57356 0.41464,1.65306 0.97922,1.8924 0.71055,0.30119 1.78936,0.0603 2.28518,-0.51038 z m 4.28977,-4.09735 c 0.19922,-0.24602 0.35138,-0.76619 0.35138,-1.20122 0,-1.68952 -1.99923,-2.44945 -3.07636,-1.16935 -0.7086,0.84212 -0.67797,1.65079 0.0917,2.42045 0.53906,0.53906 0.70398,0.59569 1.4452,0.49628 0.51895,-0.0696 0.97015,-0.27703 1.18808,-0.54616 z m 34.46547,30.52945 c -1.03156,-0.89035 -2.24053,-1.94584 -2.68659,-2.34553 -0.44607,-0.3997 -2.17444,-1.89449 -3.84083,-3.32177 l -3.02981,-2.59505 -0.002,-4.72918 c -6.6e-4,-2.69076 0.0779,-4.77847 0.18317,-4.84353 0.16241,-0.10037 1.89724,1.25486 3.39611,2.65297 0.77167,0.7198 1.96402,1.49211 3.39585,2.19956 l 1.28783,0.63629 0.4026,-0.4026 c 0.47674,-0.47674 0.80855,-0.10827 -2.99025,-3.32067 -4.71892,-3.99045 -4.92398,-4.16167 -5.30651,-4.43085 -0.32591,-0.22934 -0.37069,-0.54878 -0.37069,-2.64495 0,-1.95805 0.0522,-2.38412 0.29171,-2.38412 0.16043,0 1.23594,0.83372 2.39002,1.8527 1.7111,1.51079 2.5675,2.09102 4.64056,3.14401 1.39822,0.71022 3.17476,1.63248 3.94788,2.04947 1.71476,0.92489 1.68455,0.89494 -3.68463,-3.65239 -2.3605,-1.99918 -4.51895,-3.82766 -4.79656,-4.06328 -0.2776,-0.23563 -1.01869,-0.86205 -1.64686,-1.39204 l -1.14212,-0.96362 0,-7.55832 c 0,-4.15708 0.0784,-7.60679 0.17424,-7.66601 0.0958,-0.0592 0.92675,0.42671 1.84648,1.07986 0.91973,0.65315 2.07647,1.46298 2.57053,1.79962 0.86931,0.59232 2.90486,2.00316 5.58934,3.87395 0.71364,0.49733 1.70175,1.17908 2.19581,1.51499 0.49406,0.33592 1.60379,1.1078 2.46607,1.71531 1.62422,1.14433 2.19071,1.28699 1.26224,0.31788 -0.29392,-0.30679 -0.5344,-0.64754 -0.5344,-0.75724 0,-0.29659 1.27326,-1.47547 1.5936,-1.47547 0.15238,0 0.47732,0.18813 0.72208,0.41808 0.3101,0.29132 0.57635,0.3764 0.87816,0.2806 0.44119,-0.14002 0.44116,-0.13957 0.0788,-1.44466 -0.10658,-0.38388 0.005,-0.50201 0.79794,-0.84173 1.0871,-0.46598 1.3335,-0.40714 1.69266,0.40424 0.19712,0.44533 0.38226,0.5905 0.69607,0.54576 0.33471,-0.0477 0.44919,-0.23431 0.52733,-0.85944 l 0.0998,-0.79848 1.13417,-0.0595 1.13418,-0.0595 0.16967,0.85794 c 0.13002,0.6575 0.26008,0.85794 0.55669,0.85794 0.21286,0 0.49157,-0.20968 0.61933,-0.46596 0.40692,-0.81619 0.57979,-0.89145 1.40652,-0.61232 1.18228,0.39916 1.29733,0.55973 1.02858,1.43541 -0.38538,1.25568 0.16506,1.44068 1.48041,0.49755 0.29139,-0.20892 0.44976,-0.14289 1.048,0.43695 0.81568,0.79058 0.8482,0.9674 0.30497,1.658 -0.63413,0.80617 -0.34652,1.17587 0.79679,1.02421 l 0.9502,-0.12605 0.36214,0.94824 c 0.39289,1.02878 0.35964,1.10316 -0.80091,1.7914 -0.54301,0.32203 -0.1735,0.83711 0.70084,0.97692 l 0.78615,0.12571 0,1.19535 0,1.19536 -0.69164,0 c -0.88619,0 -1.35091,0.6681 -0.77138,1.10894 0.20081,0.15276 0.52231,0.3311 0.71445,0.39633 0.43324,0.14708 0.43883,0.45879 0.0267,1.48878 l -0.32263,0.80632 -0.94519,-0.12539 c -0.79029,-0.10483 -0.96734,-0.0677 -1.08035,0.22686 -0.0839,0.21861 0.007,0.51084 0.24002,0.77035 0.66475,0.7408 0.65559,0.87175 -0.11184,1.59913 -0.88386,0.83771 -0.97735,0.85371 -1.59559,0.2729 -0.37243,-0.34988 -0.54221,-0.39662 -0.81135,-0.22338 -0.3459,0.22266 -0.38501,0.61751 -0.13866,1.40029 0.11596,0.36845 0.006,0.49827 -0.71866,0.84838 -1.13802,0.54983 -1.27172,0.52908 -1.74356,-0.27064 -0.30944,-0.52445 -0.50029,-0.65871 -0.8182,-0.57557 -0.25495,0.0667 -0.41567,0.27242 -0.41735,0.53428 -0.006,0.90492 -0.2335,1.32415 -0.71922,1.32415 -0.38136,0 -0.47577,0.10477 -0.47577,0.528 l 0,0.528 1.34743,-0.11991 c 4.1494,-0.36926 8.21911,-3.6879 9.66922,-7.88475 0.39648,-1.14747 0.45997,-1.71504 0.45086,-4.0304 -0.0102,-2.59972 -0.0343,-2.75058 -0.68038,-4.27311 -0.36838,-0.86804 -1.11196,-2.16246 -1.65241,-2.87649 l -0.98263,-1.29824 3.95677,-3.96047 c 2.17621,-2.17826 4.04742,-3.96043 4.15825,-3.96038 0.2292,1.1e-4 1.43546,1.37275 2.63125,2.99419 1.54981,2.10146 2.88207,4.95958 3.70458,7.9475 0.36321,1.31944 0.42239,2.0798 0.42239,5.427 0,4.05359 -0.0349,4.29082 -1.1534,7.84931 -0.44931,1.42945 -1.75061,3.93185 -2.93728,5.64844 -1.99998,2.89306 -5.37429,5.81338 -8.81962,7.633 -2.3944,1.26458 -6.58171,2.42433 -8.75311,2.42433 -0.89176,0 -1.48296,0.1533 -2.60516,0.67553 -0.79839,0.37155 -2.05796,0.95543 -2.79905,1.29753 -0.74109,0.34209 -1.95378,0.90198 -2.69486,1.24418 -0.74109,0.34221 -1.93132,0.89169 -2.64496,1.22108 -0.71364,0.32939 -1.65125,0.76803 -2.08359,0.97476 -0.43234,0.20674 -0.84593,0.37588 -0.9191,0.37588 -0.0732,0 -0.97704,-0.72846 -2.00861,-1.61881 z m 21.08065,-9.85402 c 3.15522,-1.25256 6.70771,-4.01124 8.47698,-6.58278 0.96102,-1.39679 2.07157,-3.62795 2.48896,-5.00043 0.20033,-0.65874 0.45726,-1.42229 0.57095,-1.69676 0.1137,-0.27448 0.2458,-1.93631 0.29354,-3.69296 0.0752,-2.76639 0.0303,-3.42655 -0.33573,-4.93188 -0.82191,-3.38052 -1.50855,-4.25866 -2.7129,-3.46954 -0.60654,0.39742 -0.63158,0.93541 -0.10965,2.35545 0.21337,0.58051 0.54384,2.02957 0.73437,3.22013 0.32916,2.05669 0.32905,2.27363 -0.002,4.35019 -0.59479,3.7304 -1.98235,6.58457 -4.46376,9.18183 -2.08243,2.17967 -4.04602,3.43338 -6.83711,4.36534 -1.96021,0.65455 -2.46599,1.34555 -1.64715,2.25037 0.46388,0.51258 1.6733,0.39348 3.54354,-0.34896 z m -5.20222,-12.52477 c 0.48876,-0.69779 0.37703,-1.32851 -0.36716,-2.07269 -0.37329,-0.37329 -0.77752,-0.67871 -0.89829,-0.67871 -0.14432,0 -0.21958,0.65167 -0.21958,1.90151 l 0,1.90151 0.58674,-0.30341 c 0.32272,-0.16688 0.72694,-0.50358 0.89829,-0.74821 z m 3.36204,-3.53329 c 0.26479,-0.10068 0.63256,-0.50153 0.81728,-0.8908 0.29959,-0.63132 0.30472,-0.78228 0.0475,-1.39785 -0.54256,-1.29853 -2.11033,-1.56371 -2.99925,-0.50729 -1.29704,1.54144 0.21715,3.52489 2.13446,2.79594 z m -4.1798,-4.2306 c 1.04328,-0.47536 1.22173,-1.91248 0.34619,-2.78802 -1.4255,-1.4255 -3.69232,0.0698 -2.91739,1.92444 0.40988,0.981 1.50571,1.34905 2.5712,0.86358 z"
       id="path4359"
       inkscape:connector-curvature="0" />
  </g>
</svg>
