<?xml version="1.0" encoding="UTF-8" standalone="no"?>
<svg
   xmlns:dc="http://purl.org/dc/elements/1.1/"
   xmlns:cc="http://creativecommons.org/ns#"
   xmlns:rdf="http://www.w3.org/1999/02/22-rdf-syntax-ns#"
   xmlns:svg="http://www.w3.org/2000/svg"
   xmlns="http://www.w3.org/2000/svg"
   version="1.1"
   id="svg6788"
   viewBox="0 0 1488.189 1052.3622"
   height="297mm"
   width="420mm">
  <defs
     id="defs6790" />
  <metadata
     id="metadata6793">
    <rdf:RDF>
      <cc:Work
         rdf:about="">
        <dc:format>image/svg+xml</dc:format>
        <dc:type
           rdf:resource="http://purl.org/dc/dcmitype/StillImage" />
        <dc:title></dc:title>
      </cc:Work>
    </rdf:RDF>
  </metadata>
  <g
     transform="translate(0,-1.6535434e-6)"
     id="layer1">
    <path
       id="path4312"
       d="m 43.042847,551.02236 0,-59.30844 -20.78529,0 -20.7852899,0 0,-21.56674 0,-21.56671 64.8012199,0 64.801213,0 0,21.56671 0,21.56674 -20.78529,0 -20.785283,0 0,59.30844 0,59.30849 -23.23064,0 -23.23064,0 0,-59.30849 z m 103.810693,55.90409 c -0.65209,-1.87237 -0.8923,-37.96289 -0.53471,-80.20122 l 0.65046,-76.79682 58.07653,-0.72249 58.07659,-0.72251 0,20.26762 0,20.26759 -34.23463,0 -34.23457,0 0,9.34988 0,9.34988 28.73259,0.75932 28.73262,0.75935 0.72299,18.19692 0.72303,18.19691 -29.45565,0 -29.45568,0 0,12.13128 0,12.13128 35.45726,0 35.45728,0 0,20.21878 0,20.21881 -58.76466,0 c -45.07419,0 -59.04069,-0.7935 -59.94962,-3.40439 z m 135.83158,-77.47077 0,-80.87521 58.78678,0 58.78675,0 -0.70992,22.24067 -0.70998,22.24068 -34.84594,0.74766 -34.84596,0.74762 0,34.89795 0,34.8979 34.84596,0.74764 34.84594,0.74765 0.70998,22.24067 0.70992,22.24067 -58.78675,0 -58.78678,0 0,-80.87517 z m 133.19,77.57257 c -0.67085,-1.92841 -0.92767,-38.06469 -0.56976,-80.30302 l 0.65045,-76.79682 23.23064,0 23.2306,0 0.70019,26.28441 0.70018,26.28444 20.60825,0 20.60818,0 0.7002,-26.28444 0.70017,-26.28441 23.23063,0 23.23059,0 0,79.52727 0,79.52726 -23.84195,0.77189 -23.84197,0.7719 0,-31.09983 0,-31.09972 -20.70522,0 -20.70517,0 -0.69121,30.3282 -0.69123,30.32819 -22.6606,0.7755 c -16.86252,0.5769 -22.9729,-0.12136 -23.88109,-2.73037 z m 152.91352,-77.57257 0,-80.87521 22.61926,0.0371 22.61931,0.0371 20.7853,37.94574 c 11.43191,20.8702 22.11116,41.17408 23.73167,45.11983 2.44436,5.95186 2.96514,-0.51854 3.05667,-37.98135 l 0.11009,-45.1553 22.00794,0 22.00799,0 0,80.87517 0,80.87521 -21.62626,0 -21.62624,0 -16.84189,-30.3282 c -9.26299,-16.68051 -20.41368,-37.60697 -24.7794,-46.50325 l -7.93773,-16.17502 -0.0572,46.50322 -0.0568,46.50325 -22.00799,0 -22.00794,0 0,-80.87521 z m 156.50096,0 0,-80.87521 68.46926,0 68.46922,0 0,80.87521 0,80.87517 -23.23064,0 -23.23063,0 0,-21.56673 0,-21.56671 -22.00795,0 -22.00798,0 0,21.56671 0,21.56673 -23.23063,0 -23.23065,0 0,-80.87517 z m 90.47721,-21.56671 0,-16.17505 -22.00795,0 -22.00798,0 0,16.17505 0,16.175 22.00798,0 22.00795,0 0,-16.175 z m 68.46921,21.52399 0,-80.91778 67.85789,0.71623 67.85799,0.71709 0.6586,58.63449 0.6586,58.63454 -7.3837,0 -7.3837,0 0,21.56667 0,21.56672 -24.45335,0 -24.45327,0 0,-21.70123 0,-21.70125 -14.06063,0.80876 -14.06066,0.80875 -0.71404,20.89277 -0.714,20.89275 -21.90503,0 -21.90517,0 0,-80.91789 z m 88.03183,-21.62896 0,-16.28001 -21.39659,0.7791 -21.39663,0.7791 -0.76541,11.76572 c -1.22438,18.81633 -0.72869,19.23644 22.6968,19.23644 l 20.86203,0 0,-16.28001 z m 66.02395,21.67168 0,-80.87521 24.4534,0 24.4531,0 0,80.87521 0,80.87517 -24.4531,0 -24.4534,0 0,-80.87517 z m 66.0239,0 0,-80.87521 23.2306,0 23.2307,0 0,57.96055 0,57.96053 23.2305,0 23.2307,0 0,-57.96053 0,-57.96055 23.2307,0 23.2306,0 0,80.87521 0,80.87517 -69.692,0 -69.6918,0 0,-80.87517 z m 158.9464,0 0,-80.87521 27.8347,0 27.8347,0 10.0154,39.76363 c 5.5085,21.87002 10.7313,43.73157 11.6063,48.58119 1.7377,9.6301 5.8502,14.56301 5.8502,7.01738 0,-2.58622 5.2268,-25.09872 11.6153,-50.02787 l 11.6152,-45.32578 28.7326,-0.003 28.7327,-0.003 0,80.87521 0,80.87516 -22.1739,0 -22.1738,0 1.7447,-51.22097 c 0.9596,-28.1715 1.1654,-51.22093 0.4573,-51.22093 -0.7083,0 -6.5015,23.04943 -12.8741,51.22093 l -11.5865,51.22097 -16.308,0 -16.308,0 -11.4283,-49.19907 -11.4285,-49.19906 -0.093,49.19906 -0.093,49.19907 -20.7853,0 -20.7853,0 0,-80.87516 z"
       style="opacity:0.97000002;fill:#000000" />
  </g>
</svg>
