<?xml version="1.0" encoding="UTF-8" standalone="no"?>
<svg
   xmlns:dc="http://purl.org/dc/elements/1.1/"
   xmlns:cc="http://creativecommons.org/ns#"
   xmlns:rdf="http://www.w3.org/1999/02/22-rdf-syntax-ns#"
   xmlns:svg="http://www.w3.org/2000/svg"
   xmlns="http://www.w3.org/2000/svg"
   xmlns:sodipodi="http://sodipodi.sourceforge.net/DTD/sodipodi-0.dtd"
   xmlns:inkscape="http://www.inkscape.org/namespaces/inkscape"
   version="1.0"
   width="925.42932"
   height="1044.8717"
   viewBox="0 0 740.34346 835.89738"
   preserveAspectRatio="xMidYMid meet"
   id="svg4384"
   inkscape:version="0.91 r13725"
   sodipodi:docname="technarium_qr_logo_text.svg"
   inkscape:export-filename="/home/nightshade/src/technarium_qr/png/technarium_qr_logo_text.png"
   inkscape:export-xdpi="90"
   inkscape:export-ydpi="90">
  <defs
     id="defs4432" />
  <sodipodi:namedview
     pagecolor="#ffffff"
     bordercolor="#666666"
     borderopacity="1"
     objecttolerance="9"
     gridtolerance="10000"
     guidetolerance="10"
     inkscape:pageopacity="0"
     inkscape:pageshadow="2"
     inkscape:window-width="1920"
     inkscape:window-height="1045"
     id="namedview4430"
     showgrid="false"
     showguides="true"
     inkscape:guide-bbox="true"
     inkscape:zoom="0.35355339"
     inkscape:cx="-164.06201"
     inkscape:cy="442.6452"
     inkscape:window-x="0"
     inkscape:window-y="35"
     inkscape:window-maximized="1"
     inkscape:current-layer="layer3"
     fit-margin-top="100"
     fit-margin-left="100"
     fit-margin-right="100"
     fit-margin-bottom="100"
     units="px"
     inkscape:snap-perpendicular="false">
    <inkscape:grid
       type="xygrid"
       id="grid4296"
       spacingx="20"
       spacingy="20"
       snapvisiblegridlinesonly="true" />
    <sodipodi:guide
       position="0,0"
       orientation="0,925.42932"
       id="guide4153" />
    <sodipodi:guide
       position="740.34346,0"
       orientation="-1044.8717,0"
       id="guide4155" />
    <sodipodi:guide
       position="740.34346,835.89738"
       orientation="0,-925.42932"
       id="guide4157" />
    <sodipodi:guide
       position="0,835.89738"
       orientation="1044.8717,0"
       id="guide4159" />
  </sodipodi:namedview>
  <metadata
     id="metadata4386">
Created by potrace 1.11, written by Peter Selinger 2001-2013
<rdf:RDF>
  <cc:Work
     rdf:about="">
    <dc:format>image/svg+xml</dc:format>
    <dc:type
       rdf:resource="http://purl.org/dc/dcmitype/StillImage" />
    <dc:title />
  </cc:Work>
</rdf:RDF>
</metadata>
  <g
     inkscape:groupmode="layer"
     id="layer3"
     inkscape:label="Layer 1"
     transform="translate(0.17155603,0)">
    <rect
       style="opacity:1;fill:#ffffff;fill-opacity:1;stroke:none"
       id="rect4161"
       width="740.34351"
       height="835.89734"
       x="-0.17158043"
       y="0" />
    <g
       id="g4236"
       transform="matrix(0.10000001,0,0,-0.1,-0.17244016,735.90149)"
       style="fill:#000000;stroke:none">
      <path
         d="M 100 94.876953 L 100 182.37695 L 100 269.87695 L 187.5 269.87695 L 275 269.87695 L 275 182.37695 L 275 94.876953 L 187.5 94.876953 L 100 94.876953 z M 300 94.876953 L 300 132.37695 L 300 169.87695 L 312.5 169.87695 L 325 169.87695 L 325 157.37695 L 325 144.87695 L 337.5 144.87695 L 350 144.87695 L 350 169.87695 L 350 194.87695 L 362.5 194.87695 L 375 194.87695 L 375 182.37695 L 375 169.87695 L 387.5 169.87695 L 400 169.87695 L 400 182.37695 L 400 194.87695 L 425 194.87695 L 450 194.87695 L 450 157.37695 L 450 119.87695 L 437.5 119.87695 L 425 119.87695 L 425 132.37695 L 425 144.87695 L 400 144.87695 L 375 144.87695 L 375 132.37695 L 375 119.87695 L 350 119.87695 L 325 119.87695 L 325 107.37695 L 325 94.876953 L 312.5 94.876953 L 300 94.876953 z M 450 194.87695 L 450 232.37695 L 450 269.87695 L 462.5 269.87695 L 475 269.87695 L 475 244.87695 L 475 219.87695 L 487.5 219.87695 L 500 219.87695 L 500 207.37695 L 500 194.87695 L 525 194.87695 L 550 194.87695 L 550 182.37695 L 550 169.87695 L 525 169.87695 L 500 169.87695 L 500 144.87695 L 500 119.87695 L 525 119.87695 L 550 119.87695 L 550 144.87695 L 550 169.87695 L 562.5 169.87695 L 575 169.87695 L 575 182.37695 L 575 194.87695 L 562.5 194.87695 L 550 194.87695 L 550 232.37695 L 550 269.87695 L 562.5 269.87695 L 575 269.87695 L 575 244.87695 L 575 219.87695 L 587.5 219.87695 L 600 219.87695 L 600 244.87695 L 600 269.87695 L 612.5 269.87695 L 625 269.87695 L 625 232.37695 L 625 194.87695 L 612.5 194.87695 L 600 194.87695 L 600 182.37695 L 600 169.87695 L 612.5 169.87695 L 625 169.87695 L 625 157.37695 L 625 144.87695 L 612.5 144.87695 L 600 144.87695 L 600 132.37695 L 600 119.87695 L 587.5 119.87695 L 575 119.87695 L 575 107.37695 L 575 94.876953 L 525 94.876953 L 475 94.876953 L 475 144.87695 L 475 194.87695 L 462.5 194.87695 L 450 194.87695 z M 600 119.87695 L 612.5 119.87695 L 625 119.87695 L 625 107.37695 L 625 94.876953 L 612.5 94.876953 L 600 94.876953 L 600 107.37695 L 600 119.87695 z M 600 269.87695 L 587.5 269.87695 L 575 269.87695 L 575 282.37695 L 575 294.87109 L 600 294.87109 L 600 282.37695 L 600 269.87695 z M 450 269.87695 L 437.5 269.87695 L 425 269.87695 L 425 244.87695 L 425 219.87695 L 412.5 219.87695 L 400 219.87695 L 400 207.37695 L 400 194.87695 L 387.5 194.87695 L 375 194.87695 L 375 219.87695 L 375 244.87695 L 387.5 244.87695 L 400 244.87695 L 400 257.37695 L 400 269.87695 L 387.5 269.87695 L 375 269.87695 L 375 282.37695 L 375 294.87109 L 450 294.87109 L 450 269.87695 z M 375 269.87695 L 375 257.37695 L 375 244.87695 L 362.5 244.87695 L 350 244.87695 L 350 257.37695 L 350 269.87695 L 362.5 269.87695 L 375 269.87695 z M 350 194.87695 L 337.5 194.87695 L 325 194.87695 L 325 207.37695 L 325 219.87695 L 337.5 219.87695 L 350 219.87695 L 350 207.37695 L 350 194.87695 z M 325 219.87695 L 312.5 219.87695 L 300 219.87695 L 300 269.87695 L 300 319.87695 L 312.5 319.87695 L 325 319.87695 L 325 294.87109 L 325 269.87695 L 325 219.87695 z M 650 94.876953 L 650 182.37695 L 650 269.87695 L 737.5 269.87695 L 825 269.87695 L 825 182.37695 L 825 94.876953 L 737.5 94.876953 L 650 94.876953 z M 125 119.87695 L 187.5 119.87695 L 250 119.87695 L 250 182.37695 L 250 244.87695 L 187.5 244.87695 L 125 244.87695 L 125 182.37695 L 125 119.87695 z M 675 119.87695 L 737.5 119.87695 L 800 119.87695 L 800 182.37695 L 800 244.87695 L 737.5 244.87695 L 675 244.87695 L 675 182.37695 L 675 119.87695 z M 150 144.87695 L 150 182.37695 L 150 219.87695 L 187.5 219.87695 L 225 219.87695 L 225 182.37695 L 225 144.87695 L 187.5 144.87695 L 150 144.87695 z M 700 144.87695 L 700 182.37695 L 700 219.87695 L 737.5 219.87695 L 775 219.87695 L 775 182.37695 L 775 144.87695 L 737.5 144.87695 L 700 144.87695 z M 500 244.87695 L 500 257.37695 L 500 269.87695 L 512.5 269.87695 L 525 269.87695 L 525 257.37695 L 525 244.87695 L 512.5 244.87695 L 500 244.87695 z M 150 294.87695 L 150 307.37695 L 150 319.87695 L 137.5 319.87695 L 125 319.87695 L 125 332.37695 L 125 344.87695 L 112.5 344.87695 L 100 344.87695 L 100 357.37695 L 100 369.87695 L 125 369.87695 L 150 369.87695 L 150 382.37695 L 150 394.87695 L 137.5 394.87695 L 125 394.87695 L 125 444.87695 L 125 494.87695 L 137.5 494.87695 L 150 494.87695 L 150 507.37695 L 150 519.87695 L 162.5 519.87695 L 175 519.87695 L 175 532.37695 L 175 544.87695 L 187.5 544.87695 L 200 544.87695 L 200 519.87695 L 200 494.87695 L 225 494.87695 L 250 494.87695 L 250 482.37695 L 250 469.87695 L 275 469.87695 L 300 469.87695 L 300 457.37695 L 300 444.87695 L 262.5 444.87695 L 225 444.87695 L 225 419.87695 L 225 394.87695 L 212.5 394.87695 L 200 394.87695 L 200 407.37695 L 200 419.87695 L 187.5 419.87695 L 175 419.87695 L 175 444.87695 L 175 469.87695 L 162.5 469.87695 L 150 469.87695 L 150 444.87695 L 150 419.87695 L 162.5 419.87695 L 175 419.87695 L 175 369.87695 L 175 319.87695 L 187.5 319.87695 L 200 319.87695 L 200 332.37695 L 200 344.87695 L 212.5 344.87695 L 225 344.87695 L 225 319.87695 L 225 294.87695 L 187.5 294.87695 L 150 294.87695 z M 225 344.87695 L 225 357.37695 L 225 369.87695 L 250 369.87695 L 275 369.87695 L 275 382.37695 L 275 394.87695 L 262.5 394.87695 L 250 394.87695 L 250 407.37695 L 250 419.87695 L 275 419.87695 L 300 419.87695 L 300 407.37695 L 300 394.87695 L 312.5 394.87695 L 325 394.87695 L 325 382.37695 L 325 369.87695 L 312.5 369.87695 L 300 369.87695 L 300 357.37695 L 300 344.87695 L 262.5 344.87695 L 225 344.87695 z M 300 419.87695 L 300 432.37695 L 300 444.87695 L 312.5 444.87695 L 325 444.87695 L 325 432.37695 L 325 419.87695 L 312.5 419.87695 L 300 419.87695 z M 300 469.87695 L 300 494.87695 L 300 519.87695 L 312.5 519.87695 L 325 519.87695 L 325 544.87695 L 325 569.87695 L 350 569.87695 L 350 544.87695 L 350 519.87695 L 350 519.87109 L 325 519.87109 L 325 469.87695 L 312.5 469.87695 L 300 469.87695 z M 300 519.87695 L 287.5 519.87695 L 275 519.87695 L 275 532.37695 L 275 544.87695 L 262.5 544.87695 L 250 544.87695 L 250 532.37695 L 250 519.87695 L 237.5 519.87695 L 225 519.87695 L 225 557.37695 L 225 594.87695 L 237.5 594.87695 L 250 594.87695 L 250 582.37695 L 250 569.87695 L 262.5 569.87695 L 275 569.87695 L 275 582.37695 L 275 594.87695 L 262.5 594.87695 L 250 594.87695 L 250 607.37695 L 250 619.87695 L 275 619.87695 L 300 619.87695 L 300 632.37695 L 300 644.87695 L 312.5 644.87695 L 325 644.87695 L 325 619.87695 L 325 594.87695 L 312.5 594.87695 L 300 594.87695 L 300 557.37695 L 300 519.87695 z M 250 519.87695 L 262.5 519.87695 L 275 519.87695 L 275 507.37695 L 275 494.87695 L 262.5 494.87695 L 250 494.87695 L 250 507.37695 L 250 519.87695 z M 175 544.87695 L 162.5 544.87695 L 150 544.87695 L 150 557.37695 L 150 569.87695 L 162.5 569.87695 L 175 569.87695 L 175 557.37695 L 175 544.87695 z M 150 544.87695 L 150 532.37695 L 150 519.87695 L 125 519.87695 L 100 519.87695 L 100 569.87695 L 100 619.87695 L 112.5 619.87695 L 125 619.87695 L 125 582.37695 L 125 544.87695 L 137.5 544.87695 L 150 544.87695 z M 250 294.87695 L 250 307.37695 L 250 319.87695 L 262.5 319.87695 L 275 319.87695 L 275 307.37695 L 275 294.87695 L 262.5 294.87695 L 250 294.87695 z M 600 294.87695 L 600 307.37695 L 600 319.87695 L 612.5 319.87695 L 625 319.87695 L 625 332.37695 L 625 344.87695 L 637.5 344.87695 L 650 344.87695 L 650 369.87695 L 650 394.87695 L 675 394.87695 L 700 394.87695 L 700 382.37695 L 700 369.87695 L 687.5 369.87695 L 675 369.87695 L 675 357.37695 L 675 344.87695 L 700 344.87695 L 725 344.87695 L 725 332.37695 L 725 319.87695 L 712.5 319.87695 L 700 319.87695 L 700 307.37695 L 700 294.87695 L 650 294.87695 L 600 294.87695 z M 650 394.87695 L 637.5 394.87695 L 625 394.87695 L 625 407.37695 L 625 419.87109 L 625 419.87695 L 625 444.87695 L 637.5 444.87695 L 650 444.87695 L 650 457.37695 L 650 469.87695 L 662.5 469.87695 L 675 469.87695 L 675 444.87695 L 675 419.87695 L 662.5 419.87695 L 650 419.87695 L 650 407.37695 L 650 394.87695 z M 650 469.87695 L 637.5 469.87695 L 625 469.87695 L 625 494.87109 L 600 494.87109 L 600 494.87695 L 625 494.87695 L 650 494.87695 L 650 482.37695 L 650 469.87695 z M 625 344.87695 L 612.5 344.87695 L 600 344.87695 L 600 357.37695 L 600 369.87695 L 612.5 369.87695 L 625 369.87695 L 625 357.37695 L 625 344.87695 z M 750 294.87695 L 750 307.37695 L 750 319.87695 L 775 319.87695 L 800 319.87695 L 800 332.37695 L 800 344.87695 L 812.5 344.87695 L 825 344.87695 L 825 319.87695 L 825 294.87695 L 787.5 294.87695 L 750 294.87695 z M 750 344.87695 L 750 357.37695 L 750 369.87695 L 762.5 369.87695 L 775 369.87695 L 775 357.37695 L 775 344.87695 L 762.5 344.87695 L 750 344.87695 z M 775 369.87695 L 775 382.37695 L 775 394.87695 L 762.5 394.87695 L 750 394.87695 L 750 407.37695 L 750 419.87695 L 775 419.87695 L 800 419.87695 L 800 432.37695 L 800 444.87695 L 812.5 444.87695 L 825 444.87695 L 825 419.87695 L 825 394.87695 L 812.5 394.87695 L 800 394.87695 L 800 382.37695 L 800 369.87695 L 787.5 369.87695 L 775 369.87695 z M 750 419.87695 L 725 419.87695 L 700 419.87695 L 700 432.37695 L 700 444.87695 L 725 444.87695 L 750 444.87695 L 750 432.37695 L 750 419.87695 z M 750 394.87695 L 750 382.37695 L 750 369.87695 L 737.5 369.87695 L 725 369.87695 L 725 382.37695 L 725 394.87695 L 737.5 394.87695 L 750 394.87695 z M 725 469.87695 L 725 494.87695 L 725 519.87695 L 737.5 519.87695 L 750 519.87695 L 750 532.37695 L 750 544.87695 L 787.5 544.87695 L 825 544.87695 L 825 532.37695 L 825 519.87695 L 812.5 519.87695 L 800 519.87695 L 800 507.37695 L 800 494.87695 L 775 494.87695 L 750 494.87695 L 750 482.37695 L 750 469.87695 L 737.5 469.87695 L 725 469.87695 z M 750 544.87695 L 737.5 544.87695 L 725 544.87695 L 725 532.37695 L 725 519.87695 L 712.5 519.87695 L 700 519.87695 L 700 532.37695 L 700 544.87695 L 687.5 544.87695 L 675 544.87695 L 675 532.37695 L 675 519.87695 L 662.5 519.87695 L 650 519.87695 L 650 557.37695 L 650 594.87695 L 637.5 594.87695 L 625 594.87695 L 625 582.37695 L 625 569.87695 L 612.5 569.87695 L 600 569.87695 L 600 557.37695 L 600 544.87695 L 587.5 544.87695 L 575 544.87695 L 575 594.87109 L 525 594.87109 L 525 594.87695 L 525 619.87695 L 537.5 619.87695 L 550 619.87695 L 550 607.37695 L 550 594.87695 L 562.5 594.87695 L 575 594.87695 L 575 607.37695 L 575 619.87695 L 587.5 619.87695 L 600 619.87695 L 600 632.37695 L 600 644.87695 L 587.5 644.87695 L 575 644.87695 L 575 669.87695 L 575 694.87695 L 587.5 694.87695 L 600 694.87695 L 600 707.37695 L 600 719.87695 L 637.5 719.87695 L 675 719.87695 L 675 732.37695 L 675 744.87695 L 687.5 744.87695 L 700 744.87695 L 700 732.37695 L 700 719.87695 L 712.5 719.87695 L 725 719.87695 L 725 732.37695 L 725 744.87695 L 712.5 744.87695 L 700 744.87695 L 700 782.37695 L 700 819.87695 L 712.5 819.87695 L 725 819.87695 L 725 807.37695 L 725 794.87695 L 737.5 794.87695 L 750 794.87695 L 750 757.37695 L 750 719.87695 L 762.5 719.87695 L 775 719.87695 L 775 707.37695 L 775 694.87695 L 762.5 694.87695 L 750 694.87695 L 750 682.37695 L 750 669.87695 L 737.5 669.87695 L 725 669.87695 L 725 657.37695 L 725 644.87695 L 737.5 644.87695 L 750 644.87695 L 750 632.37695 L 750 619.87695 L 762.5 619.87695 L 775 619.87695 L 775 607.37695 L 775 594.87695 L 762.5 594.87695 L 750 594.87695 L 750 569.87695 L 750 544.87695 z M 775 594.87695 L 787.5 594.87695 L 800 594.87695 L 800 582.37695 L 800 569.87695 L 787.5 569.87695 L 775 569.87695 L 775 582.37695 L 775 594.87695 z M 775 619.87695 L 775 632.37695 L 775 644.87695 L 800 644.87695 L 825 644.87695 L 825 632.37695 L 825 619.87695 L 800 619.87695 L 775 619.87695 z M 775 694.87695 L 787.5 694.87695 L 800 694.87695 L 800 707.37695 L 800 719.87695 L 812.5 719.87695 L 825 719.87695 L 825 694.87695 L 825 669.87695 L 800 669.87695 L 775 669.87695 L 775 682.37695 L 775 694.87695 z M 750 794.87695 L 750 807.37695 L 750 819.87695 L 762.5 819.87695 L 775 819.87695 L 775 807.37695 L 775 794.87695 L 762.5 794.87695 L 750 794.87695 z M 775 794.87695 L 787.5 794.87695 L 800 794.87695 L 800 769.87695 L 800 744.87695 L 787.5 744.87695 L 775 744.87695 L 775 769.87695 L 775 794.87695 z M 675 744.87695 L 662.5 744.87695 L 650 744.87695 L 650 757.37695 L 650 769.87695 L 662.5 769.87695 L 675 769.87695 L 675 757.37695 L 675 744.87695 z M 575 694.87695 L 562.5 694.87695 L 550 694.87695 L 550 682.37695 L 550 669.87695 L 537.5 669.87695 L 525 669.87695 L 525 682.37695 L 525 694.87695 L 512.5 694.87695 L 500 694.87695 L 500 682.37695 L 500 669.87695 L 512.5 669.87695 L 525 669.87695 L 525 644.87695 L 525 619.87695 L 500 619.87695 L 500 644.87109 L 425 644.87109 L 425 619.87695 L 412.5 619.87695 L 400 619.87695 L 400 607.37695 L 400 594.87695 L 375 594.87695 L 350 594.87695 L 350 619.87695 L 350 644.87695 L 375 644.87695 L 400 644.87695 L 400 657.37695 L 400 669.87695 L 412.5 669.87695 L 425 669.87695 L 425 657.37695 L 425 644.87695 L 450 644.87695 L 475 644.87695 L 475 669.87695 L 475 694.87695 L 462.5 694.87695 L 450 694.87695 L 450 707.37695 L 450 719.87695 L 475 719.87695 L 500 719.87695 L 500 732.37695 L 500 744.87695 L 512.5 744.87695 L 525 744.87695 L 525 732.37695 L 525 719.87695 L 537.5 719.87695 L 550 719.87695 L 550 757.37695 L 550 794.87695 L 562.5 794.87695 L 575 794.87695 L 575 782.37695 L 575 769.87695 L 587.5 769.87695 L 600 769.87695 L 600 757.37695 L 600 744.87695 L 587.5 744.87695 L 575 744.87695 L 575 719.87695 L 575 694.87695 z M 500 744.87695 L 462.5 744.87695 L 425 744.87695 L 425 757.37695 L 425 769.87695 L 437.5 769.87695 L 450 769.87695 L 450 782.37695 L 450 794.87695 L 437.5 794.87695 L 425 794.87695 L 425 782.37695 L 425 769.87695 L 400 769.87695 L 375 769.87695 L 375 782.37695 L 375 794.87695 L 387.5 794.87695 L 400 794.87695 L 400 807.37695 L 400 819.87695 L 437.5 819.87695 L 475 819.87695 L 475 807.37695 L 475 794.87695 L 500 794.87695 L 525 794.87695 L 525 782.37695 L 525 769.87695 L 512.5 769.87695 L 500 769.87695 L 500 757.37695 L 500 744.87695 z M 400 669.87695 L 387.5 669.87695 L 375 669.87695 L 375 694.87695 L 375 719.87695 L 362.5 719.87695 L 350 719.87695 L 350 694.87695 L 350 669.87695 L 337.5 669.87695 L 325 669.87695 L 325 682.37695 L 325 694.87695 L 312.5 694.87695 L 300 694.87695 L 300 732.37695 L 300 769.87695 L 312.5 769.87695 L 325 769.87695 L 325 782.37695 L 325 794.87695 L 337.5 794.87695 L 350 794.87695 L 350 769.87695 L 350 744.87695 L 375 744.87695 L 400 744.87695 L 400 707.37695 L 400 669.87695 z M 400 594.87695 L 412.5 594.87695 L 425 594.87695 L 425 594.87109 L 400 594.87109 L 400 594.87695 z M 575 644.87695 L 575 632.37695 L 575 619.87695 L 562.5 619.87695 L 550 619.87695 L 550 632.37695 L 550 644.87695 L 562.5 644.87695 L 575 644.87695 z M 600 544.87695 L 612.5 544.87695 L 625 544.87695 L 625 532.37695 L 625 519.87695 L 612.5 519.87695 L 600 519.87695 L 600 532.37695 L 600 544.87695 z M 700 569.87695 L 712.5 569.87695 L 725 569.87695 L 725 582.37695 L 725 594.87695 L 712.5 594.87695 L 700 594.87695 L 700 582.37695 L 700 569.87695 z M 150 594.87695 L 150 607.37695 L 150 619.87695 L 162.5 619.87695 L 175 619.87695 L 175 607.37695 L 175 594.87695 L 162.5 594.87695 L 150 594.87695 z M 625 619.87695 L 662.5 619.87695 L 700 619.87695 L 700 657.37695 L 700 694.87695 L 662.5 694.87695 L 625 694.87695 L 625 657.37695 L 625 619.87695 z M 100 644.87695 L 100 732.37695 L 100 819.87695 L 187.5 819.87695 L 275 819.87695 L 275 732.37695 L 275 644.87695 L 187.5 644.87695 L 100 644.87695 z M 650 644.87695 L 650 657.37695 L 650 669.87695 L 662.5 669.87695 L 675 669.87695 L 675 657.37695 L 675 644.87695 L 662.5 644.87695 L 650 644.87695 z M 125 669.87695 L 187.5 669.87695 L 250 669.87695 L 250 732.37695 L 250 794.87695 L 187.5 794.87695 L 125 794.87695 L 125 732.37695 L 125 669.87695 z M 150 694.87695 L 150 732.37695 L 150 769.87695 L 187.5 769.87695 L 225 769.87695 L 225 732.37695 L 225 694.87695 L 187.5 694.87695 L 150 694.87695 z M 625 794.87695 L 625 807.37695 L 625 819.87695 L 637.5 819.87695 L 650 819.87695 L 650 807.37695 L 650 794.87695 L 637.5 794.87695 L 625 794.87695 z "
         transform="matrix(8,0,0,-8,0.00859716,7359.0149)"
         id="path4238" />
    </g>
  </g>
  <g
     inkscape:groupmode="layer"
     id="layer4"
     inkscape:label="Layer 2"
     style="display:inline;opacity:1"
     transform="translate(0.17155603,0)">
    <g
       transform="matrix(0.66475311,0,0,0.66475311,-67.743783,330.12742)"
       id="g5599">
      <path
         inkscape:connector-curvature="0"
         style="fill:#000000"
         d="m 1298.2871,571.98633 -10.793,0.26562 -10.7929,0.26367 0,22.39844 c 0,12.68882 -0.3374,22.39649 -0.7774,22.39649 -0.4271,0 -1.4446,-1.85859 -2.2617,-4.13086 -0.8171,-2.27228 -6.4043,-12.27596 -12.416,-22.23047 l -10.9297,-18.09961 -11.4121,-0.24219 -11.4121,-0.24023 0,38.01172 0,38.01171 10.791,0 10.791,0 0,-22.39648 c 0,-13.99901 0.3237,-22.59422 0.8633,-22.92773 0.4748,-0.29346 0.8633,-0.11485 0.8633,0.39843 0,1.23705 4.6431,10.88159 7.1094,14.76758 1.0755,1.69465 5.6439,9.17338 10.1523,16.61914 l 8.1973,13.53906 11.0117,0 11.0117,0 0,-38.20312 0,-38.20117 z m 12.084,0.43164 0,37.52734 0,37.5293 11.0078,0.24219 c 6.6172,0.14517 11.2705,-0.10206 11.668,-0.6211 0.3636,-0.47482 0.6297,-4.36132 0.5918,-8.63476 -0.038,-4.27344 -0.044,-8.46034 -0.014,-9.30469 0.051,-1.40635 1.0512,-1.51496 11.9258,-1.29492 l 11.8711,0.24023 0.4316,9.92774 0.4317,9.92968 11.4394,0 11.4395,0 0,-37.77148 0,-37.76953 -35.3945,0 -35.3965,0 z m 29.0371,19.10742 c 1.5904,-0.003 3.6022,0.0248 6.1426,0.0762 l 11.8711,0.24024 0,7.76953 0,7.77148 -11.8711,0.24024 c -10.1616,0.20561 -11.8769,0.0493 -11.918,-1.08008 -0.026,-0.72564 -0.049,-3.84527 -0.049,-6.93164 0,-3.08638 0.022,-6.20405 0.049,-6.92969 0.031,-0.84705 1.0041,-1.14609 5.7754,-1.15625 z"
         transform="matrix(1.1583173,0,0,1.1583173,-850.83025,-80.148125)"
         id="path5562" />
      <path
         inkscape:connector-curvature="0"
         style="fill:#000000"
         d="m 1393.25,572.41797 0,37.41015 c 0,20.57584 0.1617,37.5717 0.3594,37.76954 0.1977,0.19807 5.3457,0.28912 11.4394,0.20117 l 11.0782,-0.16016 0.2441,-10.01562 0.2441,-10.01563 8.3887,0.24805 8.3906,0.24609 0.2403,9.92774 0.2382,9.92968 11.6309,-0.26367 11.6309,-0.26172 0,-9.88281 0,-9.88086 3.6699,0 3.668,0.002 -0.2383,-27.62696 -0.2403,-27.62695 -35.3711,0 -35.373,0 z m 82.8789,0 0,37.98633 0,37.98632 11.6543,0 11.6543,0 0,-37.98632 0,-37.98633 -11.6543,0 -11.6543,0 z m -59.5703,18.99219 11.9941,0 c 13.7365,0 13.043,-0.43697 13.043,8.20117 0,3.0087 -0.2352,6.08486 -0.5234,6.83594 -0.4431,1.15457 -2.3789,1.36718 -12.5196,1.36718 l -11.9941,0 0,-8.20312 0,-8.20117 z"
         id="path5566"
         transform="matrix(1.1583173,0,0,1.1583173,-850.83025,-80.148125)" />
      <path
         inkscape:connector-curvature="0"
         style="fill:#000000"
         d="m 1594.4043,571.98633 0,38.20117 0,38.20312 10.4238,0 10.4258,0 -0.1367,-24.38867 c -0.076,-13.41385 -0.1061,-24.75625 -0.066,-25.20312 0.139,-1.57235 2.608,2.56338 2.6347,4.41406 0.015,1.03056 1.6019,8.02275 3.5274,15.53906 1.9255,7.51631 4.3881,17.16211 5.4707,21.43555 l 1.9687,7.77148 8.3438,0.2461 c 7.3712,0.21829 8.3437,0.0765 8.3437,-1.21875 0,-0.8064 0.5573,-3.44351 1.2383,-5.85938 0.6811,-2.41586 1.8703,-6.91753 2.6446,-10.0039 0.7742,-3.08638 1.77,-6.7967 2.2109,-8.2461 0.4409,-1.4494 1.1656,-4.36281 1.6113,-6.47461 2.2495,-10.65787 4.4601,-18.08593 5.3828,-18.08593 0.3988,0 0.7246,11.2794 0.7246,25.06445 l 0,25.06445 10.1446,-0.24414 10.1445,-0.24219 0.2246,-37.77148 0.2246,-37.76953 -14.6191,0 -14.6192,0 -0.8476,2.80469 c -0.4665,1.54318 -1.0884,3.77777 -1.3828,4.96484 -0.8669,3.49592 -4.3532,15.82796 -8.6641,30.64844 -0.6906,2.37413 -1.368,5.48177 -1.5058,6.90625 -0.2697,2.78625 -1.3983,3.38907 -2.4239,1.29492 -0.3487,-0.71224 -1.3084,-4.20833 -2.1328,-7.76953 -0.8244,-3.5612 -2.4658,-9.77843 -3.6484,-13.81446 -1.1825,-4.03602 -2.5077,-8.8917 -2.9453,-10.79101 -0.4377,-1.89931 -1.1328,-4.42426 -1.543,-5.61133 -0.4102,-1.18707 -1.1642,-3.71202 -1.6758,-5.61133 l -0.9297,-3.45312 -14.2754,0 -14.2734,0 z"
         id="path5564"
         transform="matrix(1.1583173,0,0,1.1583173,-850.83025,-80.148125)" />
      <path
         inkscape:connector-curvature="0"
         style="fill:#000000"
         d="m 926.19336,571.98633 0,9.68555 0,9.6875 11.00586,0.24218 11.00781,0.24024 0.22852,28.27343 0.22656,28.27539 11.64258,0 11.64453,0 0,-28.49023 0,-28.49023 11.25,0 11.25195,0 -0.24414,-9.51758 -0.24414,-9.51953 -33.88477,-0.19336 -33.88476,-0.19336 z m 77.69724,0 0,38.20117 0,38.20312 30.6485,0 30.6484,0 0,-8.8496 0,-8.84961 -18.2168,0.25 c -13.1933,0.1808 -18.5615,-0.0351 -19.4629,-0.78321 -0.9069,-0.75268 -1.176,-2.57764 -0.9922,-6.72461 l 0.2519,-5.6914 15.7871,-0.23633 15.7891,-0.23438 -0.248,-7.96679 -0.2481,-7.9668 -15.541,-0.43164 -15.5391,-0.43164 -0.2636,-4.60156 c -0.1518,-2.65131 0.1683,-5.12251 0.7539,-5.82813 0.8176,-0.98522 4.5005,-1.22483 18.8242,-1.22461 l 17.8086,0 -0.1817,-7.98437 c -0.099,-4.39231 -0.1955,-8.18056 -0.2148,-8.41797 -0.019,-0.23741 -13.4388,-0.43164 -29.8203,-0.43164 l -29.7852,0 z"
         id="path5560"
         transform="matrix(1.1583173,0,0,1.1583173,-850.83025,-80.148125)" />
      <path
         inkscape:connector-curvature="0"
         style="fill:#000000"
         d="m 1074.6836,571.55469 0,38.41797 0,38.41796 30.6484,0 30.6485,0 0,-9.92968 0,-9.92774 -17.9571,0 c -12.8155,0 -18.2547,-0.2958 -18.9941,-1.03515 -1.4618,-1.46175 -1.4618,-33.58903 0,-35.05078 0.7394,-0.73936 6.1786,-1.03711 18.9941,-1.03711 l 17.9571,0 0,-9.92774 0,-9.92773 -30.6485,0 -30.6484,0 z m 435.9785,0 0,38.41797 0,38.41796 36.2578,0 36.2598,0 0,-38.41796 0,-38.41797 -11.6426,0 -11.6426,0 -0.2285,28.27343 -0.2265,28.27344 -12.5196,0 -12.5176,0 -0.2265,-28.27344 -0.2285,-28.27343 -11.6426,0 -11.6426,0 z m -364.3242,0.43164 0,38.20117 0,38.20312 11.2032,0 11.2031,0 0.2344,-14.89257 0.2363,-14.89258 12.3027,-0.24024 12.3028,-0.23828 0,15.15625 0,15.15625 11.4394,-0.24023 11.4395,-0.24024 0,-37.82812 0,-37.82813 -11.2246,-0.002 -11.2227,0 -0.2383,13.03125 -0.2383,13.0332 -12.2793,-0.24023 -12.2812,-0.24023 -0.4316,-12.94922 -0.4317,-12.94922 -11.0078,0 -11.0078,0 z"
         id="path5558"
         transform="matrix(1.1583173,0,0,1.1583173,-850.83025,-80.148125)" />
    </g>
    <g
       id="g5571"
       transform="matrix(0.43117541,0,0,0.43117541,505.86704,173.56786)">
      <g
         transform="translate(-973.17771,265.69256)"
         id="g5589">
        <path
           inkscape:connector-curvature="0"
           transform="matrix(1.1583173,0,0,1.1583173,-850.83025,-80.148125)"
           id="path5556"
           d="m 1279.2402,465.48438 -5.8027,2.86328 c -3.191,1.57463 -9.9776,4.85016 -15.082,7.27929 -5.1044,2.42914 -9.2813,4.71386 -9.2813,5.07617 0,0.36231 1.9484,1.58305 4.3281,2.7129 6.508,3.08979 14.2921,10.77889 24.0547,23.76171 4.829,6.4218 9.008,12.26781 9.2852,12.99024 0.4261,1.11045 2.9242,1.31025 16.166,1.28711 l 15.6641,-0.0273 3.8847,-5.79687 c 5.7119,-8.52086 16.7168,-22.00965 21.1192,-25.88477 2.112,-1.85905 6.2572,-4.66789 9.2109,-6.24218 l 5.3711,-2.86133 -15.4766,-7.50977 -15.4765,-7.50781 -6.043,9.36133 c -3.3238,5.14855 -8.5114,13.24851 -11.5273,18 -3.016,4.75148 -5.9433,8.63867 -6.5059,8.63867 -0.5626,0 -3.2528,-3.59418 -5.9785,-7.98633 -2.7257,-4.39215 -7.8711,-12.52377 -11.4336,-18.07031 l -6.4766,-10.08398 z"
           style="opacity:1;fill:#000000" />
        <path
           inkscape:connector-curvature="0"
           style="opacity:1;fill:#000000"
           d="m 1029.6348,69.628906 0.584,4.267578 c 3.3306,24.338461 11.5906,45.384826 24.207,61.679686 7.1217,9.19812 39.5731,38.91231 66.4726,60.86524 11.6516,9.50891 16.8345,14.50008 17.3164,16.67578 6.5409,29.52976 31.8769,53.95794 62.9454,60.68945 3.7986,0.82303 9.0748,1.52624 11.7246,1.5625 l 4.8183,0.0664 11.2422,-11.43946 c 13.7058,-13.9455 23.062,-23.86409 23.4141,-24.82031 0.2652,-0.72046 -7.3202,-6.90625 -8.4688,-6.90625 -0.3408,0 -3.2039,1.16994 -6.3613,2.60156 -12.3896,5.61773 -26.3327,5.47248 -39.0605,-0.4082 -5.1486,-2.37875 -7.977,-4.4534 -12.754,-9.35742 -5.794,-5.9481 -7.1877,-8.00989 -10.3418,-15.2832 -3.0607,-7.05802 -3.8388,-19.50981 -1.7812,-28.49415 0.4303,-1.87891 -0.2221,-2.69134 -4.9609,-6.17773 -3.0009,-2.20775 -6.3238,-4.72961 -7.3829,-5.60547 -1.059,-0.87586 -3.7782,-2.9505 -6.0429,-4.60937 -2.2648,-1.65888 -4.3114,-3.22209 -4.5489,-3.47266 -0.2373,-0.25058 -5.093,-3.96646 -10.791,-8.25781 -5.6979,-4.29136 -17.5477,-13.24029 -26.332,-19.88672 -8.7843,-6.64644 -27.8205,-20.98432 -42.3027,-31.86133 -14.4822,-10.877017 -26.7205,-20.075365 -27.1953,-20.441405 -4.696,-3.620096 -6.6211,-5.133033 -10.2207,-8.027344 l -4.1797,-3.359375 z m 35.0547,14.976563 c -1.0033,0.04407 -1.1377,0.390714 0.066,1.08789 0.9496,0.549884 5.5035,3.742703 10.1211,7.095703 4.6175,3.353002 12.4933,9.011068 17.5,12.572268 5.0066,3.5612 13.1669,9.38802 18.1347,12.94922 4.9679,3.5612 13.1254,9.38802 18.1289,12.94922 5.0035,3.5612 13.1598,9.38997 18.1231,12.95117 4.9632,3.5612 13.368,9.58224 18.6777,13.38086 5.3097,3.79861 12.7034,9.14084 16.4316,11.87109 3.7282,2.73025 7.1646,4.96289 7.6368,4.96289 0.4721,0 0.8593,0.82309 0.8593,1.82813 0,1.49963 -0.3492,1.71775 -1.9433,1.21875 -3.9901,-1.24903 -5.0614,-0.93205 -6.2442,1.84375 -1.1238,2.63753 -1.0796,2.76608 1.2911,3.74804 4.4966,1.86258 3.9755,6.2684 -0.8672,7.33203 -2.27,0.49857 -2.5957,0.94244 -2.5957,3.52344 0,2.50916 0.2985,2.95313 1.9922,2.95313 3.2907,0 5.2564,1.97292 4.5937,4.61328 -0.3165,1.26094 -1.1295,2.29297 -1.8047,2.29297 -1.8228,0 -2.3899,1.4463 -1.7363,4.42187 0.5625,2.56096 0.7076,2.63587 4.1641,2.11914 3.0586,-0.45726 3.7518,-0.26342 4.7402,1.32422 1.0099,1.62213 0.9268,2.1695 -0.6445,4.29492 l -1.8008,2.43555 2.166,2.33789 2.166,2.33789 2.1387,-2.00781 c 1.8621,-1.74938 2.4255,-1.87743 4.3769,-0.98828 2.0201,0.9204 2.1856,1.34942 1.6778,4.35547 -0.538,3.18437 -0.4361,3.37745 2.291,4.32812 1.8916,0.65943 2.9543,0.69761 3.1484,0.11524 0.1612,-0.48342 0.9932,-1.74315 1.8496,-2.80079 1.3471,-1.66362 1.8513,-1.78858 3.7364,-0.92968 1.3584,0.61895 2.3975,1.98758 2.7597,3.63672 0.5102,2.32266 0.9423,2.64648 3.5352,2.64648 2.6776,0 2.9531,-0.23177 2.9531,-2.48437 0,-4.57768 4.8078,-6.35698 6.7031,-2.48047 1.2421,2.54031 2.7287,2.93058 5.5039,1.44531 1.4375,-0.7693 1.6418,-1.47878 1.1914,-4.14453 -0.4793,-2.83688 -0.2829,-3.35581 1.6543,-4.39258 1.9108,-1.02262 2.4028,-0.98954 3.7832,0.25977 2.0628,1.86678 3.0026,1.81041 4.9043,-0.29102 0.8595,-0.94965 1.9563,-1.72656 2.4375,-1.72656 0.4812,0 3.544,1.9476 6.8067,4.32812 l 5.9336,4.32813 11.8359,-9.11524 c 6.51,-5.0144 14.2491,-10.94464 17.1973,-13.17773 l 5.3593,-4.06055 0.035,-43.51562 0.035,-43.51563 -1.9414,1.63086 c -1.0684,0.89686 -4.4736,3.96759 -7.5665,6.82422 -3.0928,2.85663 -9.2998,8.49522 -13.7949,12.53125 -4.495,4.03603 -11.2086,10.15516 -14.9179,13.59766 -3.7093,3.44249 -7.2931,6.25976 -7.9629,6.25976 -1.1757,0 -2.9913,-0.65057 -8.7676,-3.14258 -1.4963,-0.64551 -3.1515,-1.17383 -3.6797,-1.17383 -0.5282,10e-6 -1.6364,-0.39596 -2.4609,-0.8789 -0.8245,-0.48295 -8.8787,-3.62109 -17.9004,-6.97461 -9.0217,-3.35353 -18.9293,-7.06328 -22.0157,-8.24414 -12.6147,-4.82647 -16.3525,-6.2502 -22.8789,-8.70899 -1.8993,-0.71555 -4.23,-1.63929 -5.1796,-2.05273 -0.9497,-0.41344 -4.4458,-1.75624 -7.7696,-2.98437 -3.3238,-1.22815 -8.5679,-3.21325 -11.6543,-4.41211 -16.9264,-6.57488 -25.6556,-9.99699 -27.1953,-10.66211 -0.9496,-0.41023 -3.863,-1.58333 -6.4746,-2.60743 -2.6115,-1.02409 -5.525,-2.202705 -6.4746,-2.619136 -7.0487,-3.090889 -27.0574,-10.872262 -32.2793,-12.552735 -3.4655,-1.115247 -6.7735,-1.829469 -8.8145,-2.033203 -0.5102,-0.05093 -0.9409,-0.06938 -1.2753,-0.05469 z m 138.746,106.250001 c 3.8174,-0.0929 7.5147,2.6271 8.2071,6.97851 0.4158,2.61361 0.097,3.55304 -1.9707,5.79688 -3.0642,3.3247 -5.9763,4.00851 -9.5157,2.23633 -5.1408,-2.57414 -5.8985,-9.76408 -1.4023,-13.30078 1.2104,-0.95206 2.5595,-1.48605 3.918,-1.6543 0.2547,-0.0316 0.5092,-0.0505 0.7636,-0.0566 z m 20.7891,10.63086 c 1.2762,0.0466 2.5385,0.62258 3.6563,1.74023 3.4052,3.40527 2.847,7.49837 -1.3145,9.65039 -3.1009,1.60353 -2.7934,1.65319 -5.9141,-0.97265 -3.0106,-2.53326 -3.4106,-5.31648 -1.1464,-7.99219 1.2564,-1.48491 2.7118,-2.29445 4.1718,-2.41406 0.1825,-0.015 0.3646,-0.0184 0.5469,-0.0117 z m 29.0469,59.36719 c -1.9485,0.0479 -5.8809,4.56906 -14.5996,13.63281 l -15.0821,15.67773 -5.7675,0.95703 c -4.7305,0.78386 -7.2125,0.6943 -13.8047,-0.49414 -8.8524,-1.5959 -12.9081,-2.93985 -21.6563,-7.17773 -6.2642,-3.03459 -7.6236,-3.44391 -5.9785,-1.79883 0.5698,0.56979 1.0371,1.57992 1.0371,2.24414 0,0.66422 0.545,2.4315 1.2129,3.92774 0.6679,1.49624 3.6037,9.32443 6.5234,17.39648 2.9199,8.07205 5.9152,16.23155 6.6543,18.13086 1.7517,4.50088 2.5559,6.68596 8.8926,24.17187 5.7971,15.99671 7.3433,20.11397 9.1778,24.41993 0.6643,1.55929 1.207,3.24824 1.207,3.7539 0,0.50567 0.5376,2.14243 1.1933,3.63867 0.6559,1.49624 3.0078,7.77257 5.2266,13.94532 2.2188,6.17274 4.5967,12.49734 5.2832,14.05664 0.6865,1.55929 1.2481,3.25019 1.2481,3.75586 0,0.50566 0.545,2.14243 1.2129,3.63867 0.6679,1.49624 3.6035,9.32443 6.5234,17.39648 2.9199,8.07206 5.871,16.13347 6.5566,17.91407 0.6857,1.7806 1.8055,4.69596 2.4903,6.47656 0.6847,1.7806 1.5086,4.1746 1.83,5.32031 0.3215,1.14571 1.127,3.37834 1.7891,4.96289 1.1902,2.84848 2.652,3.58454 4.2441,2.13477 0.4511,-0.41075 5.8722,-3.37614 12.045,-6.58985 6.1727,-3.2137 11.6482,-6.17779 12.1699,-6.58789 0.6331,-0.4977 0.7262,-2.25413 0.2773,-5.28125 -0.6841,-4.61363 -1.963,-17.6314 -3.414,-34.75195 -0.4427,-5.22309 -1.1978,-12.99219 -1.6778,-17.26563 -1.1532,-10.26698 -2.538,-24.54491 -3.5156,-36.25976 -0.4358,-5.2231 -1.1841,-12.99414 -1.6641,-17.26758 -1.1698,-10.41613 -2.5511,-24.69108 -3.5078,-36.25781 -0.432,-5.2231 -1.1725,-12.79991 -1.6445,-16.83594 -0.472,-4.03603 -1.2751,-12.03555 -1.7851,-17.77734 -0.7845,-8.82997 -0.7488,-13.25497 -2.6973,-13.20703 z"
           transform="matrix(1.1583173,0,0,1.1583173,-850.83025,-80.148125)"
           id="path5540" />
        <path
           inkscape:connector-curvature="0"
           transform="matrix(1.1583173,0,0,1.1583173,-850.83025,-80.148125)"
           id="path5554"
           d="m 1104.0117,352.95508 0.8574,2.2539 c 2.7501,7.23322 9.0455,16.35565 17.1641,24.87305 4.1577,4.3619 12.7991,11.34177 25.0391,20.22266 25.2011,18.28515 42.5291,30.88472 57.4218,41.75195 6.8325,4.98568 13.2859,9.64714 14.3418,10.35938 1.0559,0.71224 3.8937,2.7526 6.3067,4.5332 2.413,1.7806 4.4917,3.23633 4.6191,3.23633 0.2351,0 -1.3158,-4.00385 -3.6777,-9.4961 -1.6738,-3.89214 -1.9046,-4.45059 -7.1719,-17.26757 -2.4392,-5.93534 -4.8087,-11.46456 -5.2656,-12.28907 -0.457,-0.8245 -0.832,-1.96578 -0.832,-2.53515 0,-1.14569 -3.3879,-5.03125 -4.3868,-5.03125 -0.3479,0 -7.4755,-4.07878 -15.8398,-9.06446 -8.3643,-4.98568 -15.3565,-9.06445 -15.5391,-9.06445 -0.1826,0 -7.1767,-4.08073 -15.541,-9.06641 -8.3643,-4.98568 -15.3653,-9.06445 -15.5586,-9.06445 -0.1932,0 -6.1093,-3.43821 -13.1465,-7.64062 -7.0372,-4.20242 -14.7372,-8.71405 -17.1113,-10.0254 -2.3741,-1.31134 -5.9731,-3.35215 -7.998,-4.53515 l -3.6817,-2.15039 z"
           style="opacity:1;fill:#000000" />
        <path
           inkscape:connector-curvature="0"
           transform="matrix(1.1583173,0,0,1.1583173,-850.83025,-80.148125)"
           id="path5552"
           d="m 1310.3711,221.79297 0,8.69141 0,8.6914 -7.3379,0 -7.3398,0 0,-8.63281 c 0,-4.74827 -0.2444,-8.63477 -0.543,-8.63477 -0.2986,0 -1.9571,1.26346 -3.6875,2.80664 -1.7305,1.54319 -5.0538,4.36046 -7.3848,6.25977 -12.9096,10.51871 -13.4292,11.46092 -13.3984,24.35351 0.012,5.12331 0.4088,13.20096 0.8808,17.94922 0.4721,4.74827 1.2283,13.4885 1.6797,19.42383 0.4515,5.93534 1.2161,14.87174 1.6993,19.85742 1.4353,14.81061 3.4004,36.25941 3.916,42.73438 0.2646,3.32379 0.8433,9.34483 1.2851,13.38086 0.4419,4.03603 1.4217,14.13584 2.1778,22.44531 0.756,8.30947 1.7524,18.79969 2.2148,23.31055 0.4624,4.51085 1.2255,13.05685 1.6953,18.99219 0.4698,5.93533 1.2374,12.4241 1.707,14.41796 0.7457,3.16616 5.2048,13.54288 12.7227,29.61328 l 2.2207,4.74805 1.9863,-4.3164 c 1.0931,-2.37414 3.5848,-7.73434 5.5371,-11.91016 7.7033,-16.47661 7.8126,-16.81796 8.6641,-27.31055 0.4459,-5.49399 1.0055,-11.1556 1.2441,-12.58008 0.2387,-1.42448 0.8107,-7.25129 1.2715,-12.94921 0.4608,-5.69792 1.2148,-14.0497 1.6739,-18.56055 1.3522,-13.28763 5.2913,-55.58164 7.3984,-79.42578 0.7343,-8.30947 1.7141,-18.99392 2.1758,-23.74219 1.6941,-17.42379 2.769,-38.46881 2.1992,-43.0293 -0.6701,-5.36332 -2.5024,-8.2048 -8.6875,-13.4707 -4.4563,-3.79399 -5.0367,-4.27391 -11.8945,-9.81836 l -4.0762,-3.29492 z m 40.6094,35.94336 -0.018,3.98047 c -0.01,2.18922 -0.5725,9.18336 -1.252,15.54101 -0.6794,6.35766 -1.8603,18.16232 -2.625,26.23438 -0.7646,8.07205 -1.7461,17.78537 -2.1816,21.58398 -0.4355,3.79862 -1.019,9.81966 -1.2969,13.38086 -0.2778,3.5612 -1.0527,11.91493 -1.7207,18.5625 -0.6679,6.64758 -1.8343,18.68967 -2.5918,26.76172 -0.7574,8.07205 -1.7561,17.9796 -2.2207,22.01563 -0.4645,4.03602 -1.1958,11.61089 -1.625,16.83398 -0.4291,5.22309 -1.2245,13.40624 -1.7676,18.18359 -0.5431,4.77736 -0.8636,10.14614 -0.7109,11.93164 0.2743,3.20691 0.4093,3.31625 11.082,9.01172 5.9423,3.17109 11.5749,6.23927 12.5176,6.81836 0.9427,0.5791 2.1668,1.06566 2.7188,1.08008 0.8739,0.0229 6.3339,-12.64528 6.3339,-14.69531 0,-0.41815 0.5428,-2.03641 1.2071,-3.59571 1.9221,-4.51162 3.5293,-8.78125 9.1855,-24.41796 2.9199,-8.07206 5.8556,-15.90025 6.5235,-17.39649 0.6679,-1.49624 1.2129,-3.13301 1.2129,-3.63867 0,-0.50567 0.5446,-2.19656 1.2089,-3.75586 1.8234,-4.27986 3.4636,-8.64295 7.8829,-20.96484 4.4418,-12.38497 6.0985,-16.77777 7.8613,-20.84961 0.6477,-1.49624 1.1777,-3.02587 1.1777,-3.39844 0,-0.37258 2.3673,-7.11144 5.2617,-14.97656 4.8803,-13.26145 5.8827,-15.9508 9.0313,-24.22852 0.6321,-1.66189 3.5333,-9.62716 6.4453,-17.69922 4.5668,-12.65932 5.9211,-16.18842 7.5312,-19.61718 0.1613,-0.34343 -2.1508,0.69262 -5.1386,2.30078 -7.1543,3.85064 -13.4612,5.99867 -23.0391,7.84961 -6.6919,1.29322 -8.7757,1.36861 -14.0117,0.5039 -5.8526,-0.96654 -6.3447,-1.23363 -10.1445,-5.51172 -2.1965,-2.47289 -9.1338,-9.74624 -15.4161,-16.16211 l -11.4218,-11.66601 z"
           style="opacity:1;fill:#000000" />
        <path
           inkscape:connector-curvature="0"
           style="opacity:1;fill:#000000"
           d="m 1482.5645,-55.212891 c -0.4961,-0.0018 -8.2077,7.357242 -17.1368,16.353516 l -16.2343,16.355469 3.8281,5.011718 c 18.0673,23.6504168 13.4088,57.125756 -10.3242,74.201172 -9.0474,6.509365 -16.1465,9.393117 -25.3985,10.314454 -5.3936,0.537103 -5.7691,0.457689 -6.3359,-1.328126 -0.944,-2.974242 0.1707,-5.934926 2.3516,-6.246093 1.1482,-0.163824 2.0359,-0.975905 2.1894,-2.001953 0.7981,-5.335801 1.0017,-5.613282 4.1152,-5.613282 2.4014,0 3.1887,0.430274 3.8145,2.076172 1.1244,2.957394 2.2208,3.36186 5.6953,2.105469 2.7038,-0.977694 2.992,-1.362753 2.4629,-3.291016 -1.0917,-3.978279 -0.8103,-5.266686 1.457,-6.660156 2.1184,-1.301949 2.3972,-1.26607 4.9629,0.630859 l 2.7188,2.009766 2.58,-2.470703 2.5782,-2.46875 -2.1778,-2.855469 c -2.0914,-2.741977 -2.1213,-2.941805 -0.7304,-5.064453 1.289,-1.967276 1.8438,-2.15132 5.041,-1.671875 3.2803,0.491912 3.6798,0.342001 4.625,-1.732422 1.5368,-3.372884 1.3013,-4.250851 -1.6035,-5.966797 -2.1876,-1.292213 -2.5945,-2.023646 -2.375,-4.279297 0.1894,-1.947436 0.7564,-2.792976 1.9922,-2.976562 5.5198,-0.820039 5.6113,-0.90016 5.6113,-4.904297 l 0,-3.820312 -3.668,-0.265625 c -3.511,-0.2540321 -3.6815,-0.3956844 -3.9219,-3.2871098 -0.2197,-2.6439522 0.078,-3.1642883 2.375,-4.171875 2.9415,-1.2902014 3.2133,-2.54525284 1.3379,-6.171875 -1.1827,-2.2872425 -1.5154,-2.4235973 -4.0957,-1.6835937 -4.0844,1.1713863 -4.5909,1.0432647 -5.7265,-1.4492187 -1.0539,-2.3129898 -0.8135,-2.967778 2.3125,-6.2734378 0.9413,-0.995437 0.7332,-1.613961 -1.2403,-3.673828 -2.8078,-2.930737 -3.8413,-3.060013 -5.9336,-0.748047 -1.979,2.186798 -4.0554,2.195534 -6.0175,0.02734 -1.4515,-1.603835 -1.4622,-2.817632 -0.053,-6.232422 0.4598,-1.114021 -0.2311,-1.858509 -2.9414,-3.167969 l -3.543,-1.710937 -1.7265,3.382812 c -2.6256,5.146544 -7.7344,3.919844 -7.7344,-1.857421 0,-2.420952 -0.1648,-2.529297 -3.8848,-2.529297 -3.72,0 -3.8847,0.108345 -3.8847,2.529297 0,3.014455 -1.9762,5.242187 -4.6504,5.242187 -1.3699,0 -2.3648,-0.900395 -3.4024,-3.076172 -1.5446,-3.239233 -1.6418,-3.25404 -7.3652,-1.111328 -1.4786,0.553553 -1.7962,1.05299 -1.1621,1.826172 0.4803,0.585668 1.0071,2.213574 1.1719,3.617187 0.2362,2.012117 -0.1702,2.818347 -1.9238,3.806641 -2.0412,1.150082 -2.4518,1.086503 -4.9649,-0.771484 l -2.7383,-2.025391 -2.5781,2.470703 -2.5781,2.46875 2.25,2.953125 c 1.9991,2.6209981 2.1066,3.0965269 0.959,4.2441408 -1.1477,1.1476144 -1.8779,0.8718056 -6.5176,-2.4550782 -2.8737,-2.0605916 -7.0969,-5.0223136 -9.3867,-6.5820316 -4.0023,-2.726122 -12.5727,-8.663952 -24.4532,-16.943359 -3.0863,-2.150861 -7.3593,-5.100829 -9.4961,-6.554688 -2.1367,-1.453855 -7.4512,-5.155305 -11.8105,-8.226562 -4.3593,-3.071248 -8.1477,-5.583984 -8.418,-5.583984 -0.2703,0 -0.4817,14.27668 -0.4707,31.726562 l 0.02,31.7265626 12.1933,10.3613284 c 6.706,5.69792 16.4577,13.955608 21.6719,18.351562 5.2141,4.395946 11.4719,9.69285 13.9043,11.769531 2.4324,2.076685 5.5872,4.759982 7.0117,5.962891 5.0036,4.225328 1.1222,3.506016 -8.8848,-1.646484 -5.5592,-2.862402 -13.7997,-7.092084 -18.3105,-9.398438 -4.8185,-2.463668 -11.1754,-6.713172 -15.4121,-10.300781 -3.9663,-3.358544 -8.3373,-7.008556 -9.7129,-8.111328 l -2.5,-2.003906 0,9.060546 0,9.060547 16.5644,14.095703 c 9.1108,7.752703 17.9491,15.330664 19.6407,16.839844 l 3.0761,2.744141 -2.4902,2.601562 -2.4883,2.603516 -7.8711,-3.947266 c -6.9922,-3.50637 -12.0423,-7.29003 -22.5429,-16.886718 -1.4264,-1.303581 -2.8861,-2.370457 -3.2422,-2.373047 -0.3561,-0.0022 -0.6465,8.704208 -0.6465,19.347656 l 0,19.351562 5.8262,5.037112 c 3.205,2.77041 6.0223,5.25823 6.2597,5.5293 0.3521,0.402 10.0097,8.77978 22.4473,19.47461 1.1871,1.02073 4.6808,4.03718 7.7637,6.70117 3.0828,2.66399 5.8447,4.8418 6.1386,4.8418 0.7035,0 9.8577,-4.14609 31.4219,-14.23242 3.7986,-1.77675 10.0139,-4.68109 13.8125,-6.45508 5.1165,-2.38949 8.5841,-3.38116 13.3809,-3.82813 10.2672,-0.95669 21.9166,-3.55632 28.9219,-6.45312 25.3234,-10.471819 44.5663,-28.560757 55.6894,-52.35157 2.5045,-5.356692 4.1018,-10.074946 7.0137,-20.708984 1.6278,-5.944632 1.6363,-36.3127988 0.012,-42.3027344 -3.3915,-12.5042676 -8.5394,-24.5236646 -14.1094,-32.9453126 -4.1501,-6.27474 -11.339,-14.96139 -12.3847,-14.964844 z m -0.5235,33.939453 c 5.089,-0.09362 8.7798,7.502531 11.4785,23.4667974 1.3026,7.7055794 0.2763,27.2957326 -1.7871,34.1015626 -4.9033,16.172909 -10.9392,26.452905 -22.0605,37.574219 -9.7607,9.760633 -19.3976,15.796656 -32.1797,20.154297 -6.9065,2.354541 -10.0358,2.343902 -12.2559,-0.03906 -4.567,-4.902085 -2.3475,-9.345425 5.959,-11.929687 16.0352,-4.988754 31.4388,-16.843519 39.6094,-30.484376 8.0346,-13.413834 11.7252,-30.372029 9.7461,-44.7812495 -0.6079,-4.4261784 -2.0895,-11.066859 -3.293,-14.7558594 -2.562,-7.8536071 -1.9552,-10.9449901 2.5156,-12.7968751 0.7853,-0.325262 1.5406,-0.496391 2.2676,-0.509766 z m -70.4277,8.736329 c 1.151,0.06347 2.3153,0.345403 3.4375,0.880859 2.9965,1.429775 5.8242,5.5196383 5.8242,8.421875 0,2.89775432 -3.3059,7.3658065 -6.1953,8.3730469 -3.7397,1.3036462 -5.045,1.1850976 -8.209,-0.7441407 -3.3798,-2.0608279 -4.5879,-4.19845441 -4.5879,-8.1210937 0,-4.844791 4.0409,-8.4882625 8.586,-8.8027345 0.3785,-0.02621 0.7608,-0.02897 1.1445,-0.0078 z m 18,17.9531246 c 0.5271,0.00165 1.0684,0.044324 1.623,0.1308594 9.0619,1.4139062 10.5013,13.936387 2.0098,17.484375 -4.3608,1.822075 -7.0544,1.180779 -10.4629,-2.490234 -5.2564,-5.661333 -1.6367,-13.9541854 5.2949,-15.0117191 0.4952,-0.075538 1.0081,-0.1149265 1.5352,-0.1132813 z M 1414.041,24.337891 c 3.5439,0.130354 6.841,4.193583 6.8067,8.652343 -0.03,3.907772 -1.6047,6.58625 -4.9141,8.357422 -2.4594,1.31622 -4.5079,1.253528 -5.0488,-0.15625 -0.2422,-0.631114 -0.3279,-4.613749 -0.1895,-8.849609 0.2514,-7.69601 0.2541,-7.702789 2.6348,-7.976563 0.2375,-0.02732 0.4747,-0.03603 0.7109,-0.02734 z m 161.6543,46.066406 -3.3789,2.546875 c -1.8592,1.400203 -7.6539,5.792564 -12.8769,9.761719 -5.2231,3.969154 -10.6248,8.067057 -12.004,9.105468 -3.6141,2.72118 -8.5761,6.502773 -9.58,7.302735 -0.4749,0.37835 -20.6203,15.566526 -44.7676,33.751956 -38.0902,28.68592 -51.7763,39.06822 -59.4707,45.10937 -1.6271,1.27748 -1.6941,1.73606 -0.7852,5.3457 2.315,9.19373 0.3603,22.27254 -4.7656,31.88672 -1.3303,2.49515 -5.0197,7.1703 -8.1973,10.39063 -13.3968,13.57712 -33.6289,17.19521 -51.4941,9.20703 l -6.1211,-2.73633 -2.9043,1.79492 c -1.5977,0.98747 -3.6222,2.58864 -4.5,3.5586 -1.8938,2.09261 -2.8614,0.81963 13.0801,17.24804 5.7797,5.95627 12.5744,13.11228 15.0996,15.90235 l 4.5918,5.07226 6.9141,-0.45703 c 34.2545,-2.26786 62.8616,-26.20201 73.0898,-61.15039 1.0752,-3.67392 2.4573,-5.05869 18,-18.05273 9.2591,-7.74082 18.5895,-15.66425 20.7344,-17.60547 2.1449,-1.94123 6.4009,-5.66583 9.459,-8.27734 13.6992,-11.69917 31.1478,-28.81729 36.3378,-35.65235 7.6008,-10.00929 15.5032,-25.50111 18.1446,-35.570311 0.3737,-1.42448 1.5045,-5.699433 2.5117,-9.498047 1.0072,-3.798614 2.0678,-9.623908 2.3574,-12.945313 l 0.5254,-6.039062 z m -36.1621,14.351562 c -3.2267,0.0064 -12.0106,2.742374 -21.5332,6.746094 -2.8181,1.184857 -21.1057,8.666937 -27.627,11.302737 -3.3237,1.34341 -9.7332,3.84209 -14.2441,5.55273 -4.5108,1.71065 -8.98,3.43738 -9.9297,3.83789 -3.8444,1.62136 -21.4441,8.34706 -28.4883,10.88672 -2.3741,0.85596 -4.6856,1.881 -5.1367,2.27735 -0.4511,0.39632 -1.3631,0.7207 -2.0273,0.7207 -0.6642,0 -2.4335,0.52998 -3.9297,1.17773 -2.7167,1.17611 -6.9927,2.85225 -13.5117,5.29688 -3.4485,1.29317 -4.9762,1.87592 -15.5391,5.91797 -3.0864,1.18105 -11.4401,4.35763 -18.5625,7.05859 -7.1224,2.70096 -14.8915,5.66293 -17.2656,6.58203 -2.3742,0.9191 -4.5777,1.75015 -4.8965,1.84766 -0.6528,0.1997 -7.3896,-5.51165 -17.1055,-14.5 -13.4195,-12.41475 -23.8409,-21.88914 -26.5605,-24.15039 l -2.8047,-2.33399 0.037,43.45899 0.037,43.45898 15.0918,11.6543 c 8.3005,6.41016 16.0056,12.3338 17.1231,13.16211 1.9973,1.48052 2.133,1.43217 7.9472,-2.80664 3.2529,-2.37149 6.3469,-4.3125 6.877,-4.3125 0.5301,0 1.6679,0.77691 2.5273,1.72656 1.9018,2.10143 2.8415,2.15778 4.9043,0.29102 1.3685,-1.23843 1.8827,-1.2772 3.7363,-0.28516 2.3352,1.24973 2.5752,2.21801 1.3497,5.4414 -0.6816,1.79254 -0.4832,2.24736 1.3359,3.07618 3.1582,1.43899 4.2264,1.2107 5.5078,-1.1836 2.0071,-3.7503 6.9063,-1.87049 6.9063,2.65039 0,1.87054 0.3742,2.09766 3.455,2.09766 3.3501,0 3.4532,-0.0872 3.4532,-2.92773 0,-2.43202 0.3789,-3.02505 2.2402,-3.49219 2.3821,-0.59788 4.666,0.67046 4.666,2.58984 0,1.79975 1.3154,2.15735 4.2148,1.14649 2.5227,-0.87941 2.6539,-1.13698 2.1602,-4.22461 -0.444,-2.77652 -0.2392,-3.44074 1.3203,-4.27539 1.5083,-0.80722 2.2904,-0.67406 4.2656,0.73242 l 2.418,1.72265 2.2383,-2.23828 2.2383,-2.23828 -1.7364,-2.34961 c -1.5117,-2.04474 -1.5858,-2.59126 -0.5781,-4.22265 0.9642,-1.56094 1.6816,-1.78525 4.3008,-1.34766 2.8729,0.47997 3.2584,0.29537 4.4707,-2.13477 1.3025,-2.61095 1.2811,-2.68317 -1.2012,-3.96679 -4.2536,-2.19965 -3.1596,-6.75519 1.7871,-7.43946 1.7069,-0.2361 2.2142,-0.86444 2.4219,-3 0.2267,-2.33089 -0.069,-2.7832 -2.1543,-3.30664 -5.2083,-1.30719 -6.2019,-4.76545 -1.9941,-6.9414 2.8909,-1.49496 3.0337,-1.96828 1.5625,-5.19727 -0.786,-1.72512 -1.4476,-2.12917 -2.8067,-1.71289 -7.3594,2.25431 -5.6226,-0.51229 5.2071,-8.29687 5.5394,-3.98186 13.616,-9.78998 17.9472,-12.90625 8.0164,-5.76759 13.6598,-9.79763 27.7325,-19.80274 56.2321,-39.978908 70.5001,-50.522558 68.7226,-50.785154 -0.1643,-0.02427 -0.3552,-0.03559 -0.5703,-0.03516 z M 1402.2168,190.75586 c 1.9176,0.0227 3.8452,0.93305 5.6426,2.73047 3.4046,3.40467 3.4982,6.76409 0.2832,10.24805 -2.7123,2.93914 -5.7284,3.81212 -8.8496,2.56054 -5.5397,-2.22135 -6.8742,-8.72347 -2.6563,-12.9414 1.7554,-1.75538 3.6625,-2.62035 5.5801,-2.59766 z m -20.5586,10.65039 c 0.5613,0.054 1.2075,0.27911 2.1133,0.6543 4.7806,1.9802 5.1505,7.58489 0.707,10.69726 -2.5834,1.80952 -3.4843,1.746 -6.2676,-0.44336 -3.1195,-2.45381 -2.8651,-7.13717 0.5235,-9.65625 1.0306,-0.76618 1.6851,-1.16492 2.3847,-1.24804 0.1749,-0.0208 0.352,-0.0219 0.5391,-0.004 z"
           transform="matrix(1.1583173,0,0,1.1583173,-850.83025,-80.148125)"
           id="path5008" />
        <path
           inkscape:connector-curvature="0"
           transform="matrix(1.1583173,0,0,1.1583173,-850.83025,-80.148125)"
           id="path5544"
           d="m 1551.8125,165.2168 c -0.2443,-0.24432 -7.5555,5.46117 -16.2461,12.67773 l -15.8008,13.12109 -3.7148,11.34571 c -4.4377,13.5549 -7.744,23.82104 -14.916,46.31055 -2.9528,9.25912 -6.8344,21.30316 -8.625,26.76367 -1.7907,5.4605 -4.7023,14.58919 -6.4707,20.28711 -5.2719,16.98581 -10.7052,26.51654 -20.7989,36.47656 -6.6735,6.58521 -8.69,7.39389 -12.2304,4.91406 -3.3857,-2.3714 -2.5534,-5.78851 2.4453,-10.04687 8.8359,-7.52733 15.5054,-18.5267 19.789,-32.63868 1.081,-3.5612 2.271,-7.25151 2.6465,-8.20117 0.3755,-0.94965 2.7004,-8.13606 5.1641,-15.9707 2.4637,-7.83464 5.5626,-17.54796 6.8867,-21.58398 1.3241,-4.03603 4.2502,-13.16471 6.5039,-20.28711 2.2537,-7.12241 4.9826,-15.59367 6.0645,-18.82422 l 1.9668,-5.87305 -4.0293,3.28125 c -2.2167,1.80535 -4.9984,4.06134 -6.1817,5.01172 -3.5269,2.83263 -8.9445,8.40506 -11.6855,12.02148 -1.4121,1.86302 -3.5663,4.5822 -4.7871,6.04297 -1.2208,1.46078 -4.6953,5.95812 -7.7207,9.99414 -3.0255,4.03603 -5.7334,7.53212 -6.0176,7.76953 -1.7741,1.48219 -19.113,24.5765 -20.2129,26.92188 -0.7383,1.57434 -2.3107,5.77669 -3.4941,9.33789 -1.1835,3.5612 -2.7193,8.02843 -3.4122,9.92773 -3.6069,9.88722 -9.4726,26.32128 -10.4765,29.35352 -0.6288,1.89931 -2.9602,8.50303 -5.1817,14.67578 -2.2214,6.17275 -4.5522,12.77843 -5.1796,14.67773 -0.6275,1.89931 -2.9583,8.50304 -5.1797,14.67579 -2.2215,6.17274 -4.5561,12.77647 -5.1875,14.67578 -0.6315,1.8993 -2.1442,6.13342 -3.3614,9.4082 -1.2171,3.27479 -2.2129,6.11971 -2.2129,6.32227 0,0.35574 4.4437,-2.0526 14.9376,-8.09571 2.7556,-1.58692 5.1727,-2.88672 5.371,-2.88672 0.1983,0 3.3176,-1.74804 6.9317,-3.88476 3.6141,-2.13672 6.7182,-3.88477 6.8965,-3.88477 0.1782,0 7.1816,-4.07877 15.5644,-9.06445 8.3829,-4.98568 15.381,-9.06445 15.5508,-9.06445 0.1698,0 3.1586,-1.93432 6.6406,-4.29688 12.6008,-8.54949 20.1799,-16.79653 26.291,-28.60742 5.6045,-10.83161 5.9062,-11.69533 23.9864,-68.53711 2.2655,-7.1224 5.2005,-16.25108 6.5215,-20.28711 1.3209,-4.03603 4.2333,-13.16666 6.4726,-20.28906 2.2393,-7.1224 5.5319,-17.41645 7.3164,-22.87695 6.4214,-19.64872 9.6121,-30.35669 9.1758,-30.79297 z m -50.2793,187.99804 c -0.2148,-0.21482 -1.5342,0.45756 -2.9336,1.49219 -1.3994,1.03464 -2.7462,1.88086 -2.9922,1.88086 -0.2459,0 -7.29,4.07877 -15.6543,9.06445 -8.3643,4.98568 -15.3584,9.06446 -15.541,9.06446 -0.1826,0 -7.1748,4.07877 -15.5391,9.06445 -8.3642,4.98568 -15.3564,9.06641 -15.539,9.06641 -0.1826,0 -7.0427,3.98516 -15.2442,8.85742 -8.2014,4.87222 -16.799,9.82599 -19.1054,11.00781 -4.0401,2.07017 -4.8122,3.08652 -7.5235,9.91797 -0.3769,0.94965 -1.2652,3.08615 -1.9746,4.74805 -0.7094,1.66189 -2.7162,6.51952 -4.4609,10.79297 -1.7447,4.27344 -3.5145,8.54644 -3.9316,9.49609 -0.4172,0.94965 -1.1212,2.6977 -1.5645,3.88476 -0.4433,1.18707 -1.4401,3.64489 -2.2148,5.46094 -1.6621,3.89602 -1.8415,3.9672 7.8164,-3.15625 3.753,-2.76813 20.2259,-14.73316 36.6074,-26.58984 52.453,-37.96464 56.9287,-41.37747 63.3476,-48.31055 3.09,-3.33742 6.9558,-8.08597 8.5899,-10.55078 3.6559,-5.51446 8.3869,-14.6619 7.8574,-15.19141 z"
           style="opacity:1;fill:#000000" />
        <path
           inkscape:connector-curvature="0"
           transform="matrix(1.1583173,0,0,1.1583173,-850.83025,-80.148125)"
           id="path5542"
           d="m 1053.3828,164.35938 c -0.2203,0.22026 2.5562,9.27245 4.0137,13.08789 0.3628,0.94965 2.06,6.19574 3.7715,11.65625 5.1739,16.50803 10.0787,31.96202 12.6054,39.71289 1.3157,4.03602 4.2378,13.1647 6.4922,20.28711 2.2544,7.1224 5.1768,16.25303 6.4961,20.28906 1.3194,4.03603 4.4251,13.74739 6.9004,21.58203 14.782,46.7874 22.5698,56.91412 59.584,77.47266 2.6115,1.4505 7.7713,4.42519 11.4648,6.61132 3.6936,2.18613 6.8901,3.97461 7.1055,3.97461 0.2154,0 2.8267,1.48768 5.8027,3.30469 2.9761,1.81701 8.5198,4.99089 12.3184,7.05273 3.7986,2.06184 8.4601,4.63784 10.3594,5.72461 3.7553,2.1488 4.748,2.42872 4.748,1.33985 0,-0.38977 -1.5827,-5.14932 -3.5176,-10.57617 -1.9348,-5.42685 -4.0308,-11.42101 -4.6582,-13.32032 -0.6274,-1.8993 -2.9668,-8.50303 -5.1992,-14.67578 -2.2324,-6.17274 -4.4048,-12.38997 -4.8261,-13.81445 -0.4214,-1.42448 -1.1321,-3.36675 -1.5801,-4.31641 -0.4481,-0.94965 -1.6315,-4.25151 -2.6289,-7.33789 -0.9975,-3.08637 -2.1628,-6.38823 -2.5899,-7.33789 -0.427,-0.94965 -1.6344,-4.25152 -2.6836,-7.33789 -1.0491,-3.08637 -3.15,-9.10937 -4.6679,-13.38281 -1.518,-4.27344 -3.8184,-10.87717 -5.1133,-14.67578 -1.295,-3.79862 -2.6913,-7.68316 -3.1035,-8.63281 -0.4123,-0.94966 -1.1773,-3.12638 -1.6993,-4.8379 -0.5219,-1.7115 -2.226,-4.62687 -3.7871,-6.47656 -1.5611,-1.84968 -6.4072,-8.02473 -10.7695,-13.72265 -23.5841,-30.80507 -29.4131,-37.75145 -37.3691,-44.53907 -4.4478,-3.79459 -8.2163,-6.50933 -8.375,-6.0332 -0.1588,0.47612 1.536,6.41682 3.7656,13.20117 6.0448,18.3933 8.3609,25.56386 13.3262,41.25586 2.479,7.83464 5.9721,18.71332 7.7617,24.17383 1.7896,5.46051 3.5264,11.0931 3.8594,12.51758 0.9667,4.13614 7.0672,16.60757 10.0546,20.55468 1.5061,1.98988 5.2101,5.99677 8.2325,8.9043 5.9529,5.7267 6.6592,7.80919 3.6074,10.65235 -2.956,2.75395 -5.165,2.14174 -10.8555,-3.00782 -6.698,-6.06133 -12.0993,-13.24842 -15.9961,-21.2832 -3.1116,-6.41586 -3.8833,-8.58099 -9.6289,-27.04297 -1.7732,-5.69792 -3.5234,-11.13628 -3.8906,-12.08594 -0.3672,-0.94965 -2.4616,-7.3611 -4.6524,-14.24609 -4.9734,-15.63068 -11.2703,-35.27168 -14.3925,-44.89258 -1.3098,-4.03603 -3.4082,-10.69776 -4.6641,-14.80469 -2.4177,-7.9062 -3.0657,-8.73252 -13.6211,-17.36914 -2.1861,-1.78872 -7.9768,-6.53484 -12.8691,-10.54687 -4.8923,-4.01203 -9.0016,-7.18785 -9.1309,-7.05859 z"
           style="opacity:1;fill:#000000" />
        <path
           inkscape:connector-curvature="0"
           transform="matrix(1.1583173,0,0,1.1583173,-850.83025,-80.148125)"
           id="path5536"
           d="m 1123.041,-55.035156 c -1.7054,0.679883 -9.9149,11.169354 -13.6133,17.394531 -10.3468,17.415927 -14.4827,32.3210135 -14.4101,51.921875 0.093,25.230047 8.0048,46.391987 24.373,65.197266 18.0659,20.755704 41.1043,32.411734 69.252,35.035154 6.5216,0.60783 6.712,0.67888 28.0586,10.66992 2.8489,1.33343 7.8988,3.66679 11.2226,5.1836 3.3238,1.5168 8.7622,4.06202 12.086,5.65625 3.3238,1.59422 6.3781,2.92325 6.7871,2.95312 0.6014,0.044 8.3821,-5.93881 10.0469,-7.72461 0.2374,-0.25468 4.7067,-4.14441 9.9296,-8.64453 5.2229,-4.50011 12.7978,-11.0982 16.834,-14.66211 4.0362,-3.56391 8.4071,-7.31089 9.7129,-8.326169 l 2.3731,-1.845703 0,-19.984376 0,-19.986328 -9.2793,8.09961 c -6.3046,5.501731 -11.7714,9.385736 -17.0469,12.111328 l -7.7656,4.011719 -2.5938,-2.619141 -2.5957,-2.619141 3.5469,-3.195312 c 4.4082,-3.973005 33.8932,-28.912585 34.9922,-29.597656 0.4425,-0.275866 0.6942,-4.642042 0.5586,-9.703125 l -0.2481,-9.201172 -7.9863,6.839844 c -4.3927,3.761836 -9.0542,7.595007 -10.3594,8.517578 -2.5903,1.83094 -36.5824,19.158203 -37.584,19.158203 -2.204,0 0.1086,-2.171386 21.2832,-19.972657 1.4874,-1.250443 8.3594,-7.077258 15.2715,-12.949218 6.9122,-5.871958 14.1967,-12.022659 16.1875,-13.667969 l 3.6192,-2.992187 0,-32.25 c 0,-28.235295 -0.157,-32.108161 -1.2618,-31.109376 -0.694,0.627454 -3.7035,2.813198 -6.6894,4.857422 -2.9859,2.044224 -8.7316,6.012134 -12.7676,8.81836 -4.036,2.806217 -9.2087,6.379742 -11.4941,7.939453 -2.2855,1.559719 -6.6426,4.583983 -9.6836,6.720703 -3.0411,2.13672 -8.6608,6.021266 -12.4883,8.632812 -3.8275,2.611547 -8.673,6.009548 -10.7676,7.5527349 -2.0946,1.5431868 -4.1783,2.8066406 -4.6308,2.8066406 -1.8071,0 -1.6374,-2.5711348 0.3476,-5.2617185 l 2.0977,-2.84375 -2.3203,-2.421875 c -2.8004,-2.922891 -3.4526,-2.977676 -6.0879,-0.501953 -1.9121,1.796266 -2.1964,1.835006 -4.3731,0.595703 -2.3415,-1.333153 -2.6502,-2.750702 -1.4394,-6.619141 0.5167,-1.651024 0.1419,-2.138166 -2.4864,-3.236328 -1.7022,-0.711256 -3.2629,-1.292969 -3.4687,-1.292969 -0.2058,0 -1.1757,1.359591 -2.1563,3.021485 -2.8161,4.773079 -7.8847,3.345327 -7.8847,-2.220703 0,-2.415858 -0.1697,-2.529297 -3.8321,-2.529297 -3.8023,0 -3.8357,0.02659 -4.1015,3.222656 -0.2208,2.654057 -0.7016,3.374056 -2.7266,4.082031 -2.5612,0.895463 -2.6093,0.862099 -5.9961,-4.072266 -0.8951,-1.304107 -1.5081,-1.386978 -4.3574,-0.585937 -3.4969,0.983107 -3.5292,1.115985 -1.7793,7.019531 0.2762,0.931852 -0.3834,1.995911 -1.8145,2.933594 -2.15,1.408782 -2.3537,1.39314 -4.7558,-0.382812 -3.1645,-2.339585 -3.284,-2.330499 -6.1895,0.453124 l -2.4101,2.306641 2.2207,2.912109 c 2.1298,2.792276 2.1612,2.9993814 0.7812,5.1054692 -1.4431,2.202432 -2.0098,2.2575219 -7.3418,0.7246094 -0.8573,-0.2464782 -1.7775,0.7751014 -2.7226,3.0195313 -1.4067,3.34059844 -1.3976,3.40836179 0.6172,4.7285156 1.1246,0.7368568 2.4479,1.3398437 2.9394,1.3398437 1.0228,0 1.1881,4.2432146 0.2246,5.7578126 -0.353,0.5549049 -1.9985,1.1375862 -3.6562,1.2949222 -2.8224,0.267872 -3.031,0.500938 -3.2891,3.652343 -0.3061,3.738658 0.6547,4.801494 4.3594,4.822266 1.7889,0.01003 2.4878,0.533799 2.8984,2.169922 0.7349,2.928071 0.1423,4.122502 -2.7773,5.597656 -1.3633,0.688819 -2.5914,1.314998 -2.7305,1.390625 -0.139,0.07565 0.4328,1.577249 1.2715,3.335938 1.4766,3.096388 1.6366,3.180533 5.0938,2.662109 3.1798,-0.476847 3.7312,-0.291699 5.0332,1.695313 1.4129,2.156455 1.3855,2.319252 -0.8028,4.919921 l -2.2637,2.691407 2.629,2.628906 2.6308,2.630859 2.5762,-1.90625 c 3.1536,-2.331554 3.5733,-2.345069 5.8808,-0.195312 1.5507,1.444656 1.7086,2.145164 1.0254,4.527343 -1.0999,3.835331 -1.1936,3.637439 2.3477,4.917969 2.9671,1.07291 3.2484,1.018378 4.7285,-0.90625 0.8657,-1.12565 1.5832,-2.337239 1.5938,-2.693359 0.031,-1.050999 4.7612,-0.738748 5.8886,0.388672 0.5698,0.569792 1.0371,2.292734 1.0371,3.828125 0,2.403624 0.3289,2.829241 2.3731,3.064453 2.1392,0.246141 2.4016,0.647908 2.6465,4.070312 l 0.2715,3.798828 -6.2618,-0.582031 c -3.4443,-0.320119 -8.0336,-1.155453 -10.1992,-1.855469 -16.2386,-5.248984 -29.5674,-18.502933 -35.1367,-34.943359 -2.5,-7.379969 -2.2732,-25.3710598 0.4082,-32.3749999 2.4333,-6.3556799 5.5054,-11.8015031 9.3457,-16.5683591 l 2.9141,-3.617188 -16.5293,-16.488281 c -9.0919,-9.068931 -16.8145,-16.376085 -17.1602,-16.238281 z m 2.0488,33.816406 c 4.3706,1.096927 7.4065,7.036761 4.9297,9.642578 -0.4287,0.451086 -1.6518,3.9279489 -2.7187,7.7265626 -1.5681,5.583218 -1.9419,9.14082 -1.9551,18.5625004 -0.019,13.897116 1.6467,20.898794 7.8926,33.162109 3.3138,6.506438 5.4708,9.320924 12.6484,16.501953 7.213,7.216494 9.8758,9.256186 15.9922,12.244141 4.036,1.97167 9.6275,4.379305 12.4258,5.349609 6.4474,2.235657 8.2949,3.902711 8.2949,7.490235 0,2.023789 -0.6459,3.331525 -2.2754,4.613281 -2.8986,2.280049 -5.4328,2.233191 -12.4023,-0.230469 -20.6527,-7.300461 -37.2878,-21.665342 -46.8614,-40.466797 -6.8017,-13.357842 -9.2539,-23.565963 -9.2539,-38.519531 0,-21.36541 6.0823,-37.883492 13.2832,-36.076172 z m 69.4981,8.714844 c 1.2718,-0.0086 2.5866,0.244714 3.8848,0.787109 6.6509,2.7789485 7.4929,11.78336928 1.4804,15.8242189 -1.6134,1.0843298 -3.9441,1.9705629 -5.1797,1.96875 -5.9526,-0.00855 -10.7529,-6.62777757 -8.8222,-12.1660157 1.3958,-4.0040112 4.8213,-6.3883152 8.6367,-6.4140622 z m -18.4297,18.1503904 c 5.2609,0 9.0313,3.5921478 9.0313,8.6035156 0,4.292328 -1.8616,7.151222 -5.6973,8.753906 -3.6146,1.510283 -3.6132,1.512104 -7.2539,-0.30664 -1.8749,-0.936617 -3.5978,-2.741742 -4.541,-4.753907 -1.338,-2.854173 -1.3771,-3.57821 -0.334,-6.042968 1.8444,-4.3581741 4.5097,-6.2539066 8.7949,-6.2539066 z m 16.7637,18.5624996 2.6875,0 -0.2461,8.847657 c -0.2256,8.113502 -0.3896,8.866736 -1.9727,9.048828 -4.4877,0.51618 -9.8279,-6.104961 -8.664,-10.742188 0.8713,-3.471872 5.0892,-7.154297 8.1953,-7.154297 z"
           style="opacity:1;fill:#000000" />
      </g>
    </g>
  </g>
</svg>
