<?xml version="1.0" standalone="no"?>
<!DOCTYPE svg PUBLIC "-//W3C//DTD SVG 20010904//EN"
 "http://www.w3.org/TR/2001/REC-SVG-20010904/DTD/svg10.dtd">
<svg version="1.0" xmlns="http://www.w3.org/2000/svg"
 width="740.000000pt" height="740.000000pt" viewBox="0 0 740.000000 740.000000"
 preserveAspectRatio="xMidYMid meet">
<metadata>
Created by potrace 1.11, written by Peter Selinger 2001-2013
</metadata>
<g transform="translate(0.000000,740.000000) scale(0.100000,-0.100000)"
fill="#000000" stroke="none">
<path d="M800 5900 l0 -700 700 0 700 0 0 700 0 700 -700 0 -700 0 0 -700z
m1200 0 l0 -500 -500 0 -500 0 0 500 0 500 500 0 500 0 0 -500z"/>
<path d="M1200 5900 l0 -300 300 0 300 0 0 300 0 300 -300 0 -300 0 0 -300z"/>
<path d="M2400 6300 l0 -300 100 0 100 0 0 100 0 100 100 0 100 0 0 -200 0
-200 -100 0 -100 0 0 -100 0 -100 -100 0 -100 0 0 -400 0 -400 100 0 100 0 0
-100 0 -100 100 0 100 0 0 -200 0 -200 100 0 100 0 0 100 0 100 100 0 100 0 0
200 0 200 -100 0 -100 0 0 -100 0 -100 -100 0 -100 0 0 100 0 100 -100 0 -100
0 0 400 0 400 100 0 100 0 0 100 0 100 100 0 100 0 0 -200 0 -200 -100 0 -100
0 0 -100 0 -100 100 0 100 0 0 -100 0 -100 200 0 200 0 0 -100 0 -100 100 0
100 0 0 200 0 200 100 0 100 0 0 200 0 200 100 0 100 0 0 100 0 100 200 0 200
0 0 -300 0 -300 100 0 100 0 0 -100 0 -100 -100 0 -100 0 0 -100 0 -100 -100
0 -100 0 0 100 0 100 -200 0 -200 0 0 -100 0 -100 100 0 100 0 0 -100 0 -100
200 0 200 0 0 -200 0 -200 -200 0 -200 0 0 100 0 100 -100 0 -100 0 0 100 0
100 -100 0 -100 0 0 -200 0 -200 100 0 100 0 0 -100 0 -100 -100 0 -100 0 0
-100 0 -100 -200 0 -200 0 0 100 0 100 100 0 100 0 0 100 0 100 -100 0 -100 0
0 -100 0 -100 -100 0 -100 0 0 -200 0 -200 -100 0 -100 0 0 100 0 100 -100 0
-100 0 0 100 0 100 -100 0 -100 0 0 100 0 100 100 0 100 0 0 100 0 100 -100 0
-100 0 0 100 0 100 -300 0 -300 0 0 200 0 200 -300 0 -300 0 0 -100 0 -100
-100 0 -100 0 0 -100 0 -100 -100 0 -100 0 0 -100 0 -100 200 0 200 0 0 -100
0 -100 -100 0 -100 0 0 -400 0 -400 100 0 100 0 0 -100 0 -100 -200 0 -200 0
0 -400 0 -400 100 0 100 0 0 300 0 300 100 0 100 0 0 -100 0 -100 100 0 100 0
0 100 0 100 100 0 100 0 0 200 0 200 200 0 200 0 0 -100 0 -100 -100 0 -100 0
0 -300 0 -300 100 0 100 0 0 -100 0 -100 200 0 200 0 0 -100 0 -100 100 0 100
0 0 200 0 200 -100 0 -100 0 0 300 0 300 100 0 100 0 0 -200 0 -200 200 0 200
0 0 100 0 100 100 0 100 0 0 200 0 200 100 0 100 0 0 -100 0 -100 200 0 200 0
0 -100 0 -100 100 0 100 0 0 -100 0 -100 100 0 100 0 0 -200 0 -200 -200 0
-200 0 0 100 0 100 -100 0 -100 0 0 200 0 200 -100 0 -100 0 0 -100 0 -100
-100 0 -100 0 0 -100 0 -100 -200 0 -200 0 0 -200 0 -200 200 0 200 0 0 -100
0 -100 -100 0 -100 0 0 -200 0 -200 -100 0 -100 0 0 200 0 200 -100 0 -100 0
0 -100 0 -100 -100 0 -100 0 0 -300 0 -300 100 0 100 0 0 -100 0 -100 100 0
100 0 0 200 0 200 200 0 200 0 0 300 0 300 100 0 100 0 0 100 0 100 200 0 200
0 0 -200 0 -200 -100 0 -100 0 0 -100 0 -100 200 0 200 0 0 -100 0 -100 -300
0 -300 0 0 -100 0 -100 -200 0 -200 0 0 -100 0 -100 100 0 100 0 0 -100 0
-100 300 0 300 0 0 100 0 100 200 0 200 0 0 100 0 100 -100 0 -100 0 0 100 0
100 100 0 100 0 0 100 0 100 100 0 100 0 0 -300 0 -300 100 0 100 0 0 100 0
100 100 0 100 0 0 100 0 100 -100 0 -100 0 0 200 0 200 100 0 100 0 0 -100 0
-100 300 0 300 0 0 -100 0 -100 -100 0 -100 0 0 -100 0 -100 100 0 100 0 0
100 0 100 100 0 100 0 0 -300 0 -300 100 0 100 0 0 100 0 100 100 0 100 0 0
-100 0 -100 100 0 100 0 0 100 0 100 100 0 100 0 0 200 0 200 -100 0 -100 0 0
-200 0 -200 -100 0 -100 0 0 300 0 300 100 0 100 0 0 100 0 100 100 0 100 0 0
-100 0 -100 100 0 100 0 0 200 0 200 -200 0 -200 0 0 -100 0 -100 -100 0 -100
0 0 100 0 100 -100 0 -100 0 0 100 0 100 100 0 100 0 0 100 0 100 100 0 100 0
0 -100 0 -100 200 0 200 0 0 100 0 100 -200 0 -200 0 0 100 0 100 100 0 100 0
0 100 0 100 -100 0 -100 0 0 -100 0 -100 -100 0 -100 0 0 200 0 200 300 0 300
0 0 100 0 100 -100 0 -100 0 0 100 0 100 -200 0 -200 0 0 100 0 100 -100 0
-100 0 0 -200 0 -200 -100 0 -100 0 0 -100 0 -100 -100 0 -100 0 0 100 0 100
-100 0 -100 0 0 -300 0 -300 -100 0 -100 0 0 100 0 100 -100 0 -100 0 0 100 0
100 100 0 100 0 0 100 0 100 -100 0 -100 0 0 -100 0 -100 -100 0 -100 0 0 200
0 200 -100 0 -100 0 0 -100 0 -100 -100 0 -100 0 0 100 0 100 -100 0 -100 0 0
100 0 100 -100 0 -100 0 0 100 0 100 100 0 100 0 0 100 0 100 100 0 100 0 0
-100 0 -100 100 0 100 0 0 -100 0 -100 100 0 100 0 0 100 0 100 100 0 100 0 0
-200 0 -200 200 0 200 0 0 100 0 100 100 0 100 0 0 200 0 200 -100 0 -100 0 0
100 0 100 200 0 200 0 0 100 0 100 -100 0 -100 0 0 100 0 100 200 0 200 0 0
100 0 100 -100 0 -100 0 0 100 0 100 -400 0 -400 0 0 100 0 100 100 0 100 0 0
300 0 300 -100 0 -100 0 0 100 0 100 100 0 100 0 0 100 0 100 -100 0 -100 0 0
100 0 100 100 0 100 0 0 100 0 100 -100 0 -100 0 0 -100 0 -100 -100 0 -100 0
0 100 0 100 -400 0 -400 0 0 -400 0 -400 -100 0 -100 0 0 300 0 300 -100 0
-100 0 0 -100 0 -100 -200 0 -200 0 0 100 0 100 -200 0 -200 0 0 100 0 100
-100 0 -100 0 0 -300z m2000 -100 l0 -200 100 0 100 0 0 -100 0 -100 -100 0
-100 0 0 100 0 100 -200 0 -200 0 0 200 0 200 200 0 200 0 0 -200z m-1200
-300 l0 -100 200 0 200 0 0 -300 0 -300 -100 0 -100 0 0 200 0 200 -100 0
-100 0 0 100 0 100 -100 0 -100 0 0 100 0 100 100 0 100 0 0 -100z m1600 -500
l0 -200 -100 0 -100 0 0 200 0 200 100 0 100 0 0 -200z m-1600 -100 l0 -100
-100 0 -100 0 0 100 0 100 100 0 100 0 0 -100z m1600 -400 l0 -100 100 0 100
0 0 -100 0 -100 100 0 100 0 0 -200 0 -200 -100 0 -100 0 0 -100 0 -100 -200
0 -200 0 0 -100 0 -100 -100 0 -100 0 0 100 0 100 100 0 100 0 0 300 0 300
-100 0 -100 0 0 100 0 100 100 0 100 0 0 100 0 100 100 0 100 0 0 -100z
m-3200 -200 l0 -100 100 0 100 0 0 -100 0 -100 200 0 200 0 0 -100 0 -100
-100 0 -100 0 0 -100 0 -100 200 0 200 0 0 -100 0 -100 100 0 100 0 0 -100 0
-100 -100 0 -100 0 0 -200 0 -200 -100 0 -100 0 0 -100 0 -100 -100 0 -100 0
0 100 0 100 100 0 100 0 0 100 0 100 -100 0 -100 0 0 100 0 100 200 0 200 0 0
100 0 100 -300 0 -300 0 0 200 0 200 -100 0 -100 0 0 -100 0 -100 -100 0 -100
0 0 -200 0 -200 -100 0 -100 0 0 200 0 200 100 0 100 0 0 400 0 400 100 0 100
0 0 -100z m3600 -1000 l0 -100 -100 0 -100 0 0 100 0 100 100 0 100 0 0 -100z
m-1400 -200 l0 -100 100 0 100 0 0 -100 0 -100 -100 0 -100 0 0 100 0 100
-200 0 -200 0 0 100 0 100 200 0 200 0 0 -100z m-800 -300 l0 -200 -100 0
-100 0 0 200 0 200 100 0 100 0 0 -200z m-1600 -100 l0 -100 -100 0 -100 0 0
100 0 100 100 0 100 0 0 -100z m4600 0 l0 -100 -100 0 -100 0 0 100 0 100 100
0 100 0 0 -100z m-3800 -400 l0 -100 -100 0 -100 0 0 100 0 100 100 0 100 0 0
-100z m3600 0 l0 -100 -100 0 -100 0 0 100 0 100 100 0 100 0 0 -100z m-2400
-200 l0 -100 -100 0 -100 0 0 100 0 100 100 0 100 0 0 -100z m1200 0 l0 -100
100 0 100 0 0 -100 0 -100 -100 0 -100 0 0 -200 0 -200 -100 0 -100 0 0 100 0
100 -100 0 -100 0 0 -100 0 -100 -100 0 -100 0 0 100 0 100 100 0 100 0 0 200
0 200 100 0 100 0 0 100 0 100 100 0 100 0 0 -100z m1000 -400 l0 -300 -300 0
-300 0 0 300 0 300 300 0 300 0 0 -300z m200 -600 l0 -100 -100 0 -100 0 0
100 0 100 100 0 100 0 0 -100z m-2200 -400 l0 -100 -100 0 -100 0 0 100 0 100
100 0 100 0 0 -100z"/>
<path d="M4800 4500 l0 -100 100 0 100 0 0 100 0 100 -100 0 -100 0 0 -100z"/>
<path d="M4400 2300 l0 -100 100 0 100 0 0 100 0 100 -100 0 -100 0 0 -100z"/>
<path d="M5200 2100 l0 -100 100 0 100 0 0 100 0 100 -100 0 -100 0 0 -100z"/>
<path d="M5200 5900 l0 -700 700 0 700 0 0 700 0 700 -700 0 -700 0 0 -700z
m1200 0 l0 -500 -500 0 -500 0 0 500 0 500 500 0 500 0 0 -500z"/>
<path d="M5600 5900 l0 -300 300 0 300 0 0 300 0 300 -300 0 -300 0 0 -300z"/>
<path d="M4000 5300 l0 -100 100 0 100 0 0 100 0 100 -100 0 -100 0 0 -100z"/>
<path d="M2000 4900 l0 -100 100 0 100 0 0 100 0 100 -100 0 -100 0 0 -100z"/>
<path d="M6000 4900 l0 -100 200 0 200 0 0 -100 0 -100 100 0 100 0 0 200 0
200 -300 0 -300 0 0 -100z"/>
<path d="M6000 4500 l0 -100 -100 0 -100 0 0 -100 0 -100 100 0 100 0 0 -100
0 -100 -200 0 -200 0 0 -100 0 -100 200 0 200 0 0 100 0 100 200 0 200 0 0
-100 0 -100 100 0 100 0 0 200 0 200 -100 0 -100 0 0 100 0 100 -100 0 -100 0
0 100 0 100 -100 0 -100 0 0 -100z m200 -200 l0 -100 -100 0 -100 0 0 100 0
100 100 0 100 0 0 -100z"/>
<path d="M1200 2500 l0 -100 100 0 100 0 0 100 0 100 -100 0 -100 0 0 -100z"/>
<path d="M800 1500 l0 -700 700 0 700 0 0 700 0 700 -700 0 -700 0 0 -700z
m1200 0 l0 -500 -500 0 -500 0 0 500 0 500 500 0 500 0 0 -500z"/>
<path d="M1200 1500 l0 -300 300 0 300 0 0 300 0 300 -300 0 -300 0 0 -300z"/>
<path d="M5000 900 l0 -100 100 0 100 0 0 100 0 100 -100 0 -100 0 0 -100z"/>
</g>
</svg>
